<?xml version="1.0" encoding="UTF-8"?>
<svg id="Camada_2" data-name="Camada 2" xmlns="http://www.w3.org/2000/svg" viewBox="0 0 2200.39 286.34">
  <g id="Camada_1-2" data-name="Camada 1">
    <path d="m474.7,137.01c23.18-12.32,40.19-33.15,40.19-61.02,0-48.41-37.26-75.99-102.39-75.99h-122.93v285.17h132.9c63.96,0,103.57-30.81,103.57-80.68-.59-33.45-22.59-55.45-51.34-67.48m-61.32-10.86h-76.57V23.47h72.17c40.49,0,57.8,15.84,57.8,52.52s-15.84,50.17-53.4,50.17m-76.57,135.25v-111.49h75.69c24.06,0,64.25,7.33,64.25,55.45,0,39.31-17.31,56.04-58.38,56.04h-81.56ZM0,163.12C0,95.06,51.93,39.9,115.89,39.9s115.89,55.16,115.89,123.22-51.93,123.22-115.89,123.22S0,231.19,0,163.12m44.89,0c0,62.2,26.4,99.46,71,99.46s70.71-37.26,70.71-99.46-26.11-99.46-70.71-99.46-71,37.26-71,99.46m520.76,0c0-68.07,51.93-123.22,115.89-123.22s115.89,55.16,115.89,123.22-51.93,123.22-115.89,123.22-115.89-55.16-115.89-123.22m44.89,0c0,62.2,26.4,99.46,71,99.46s70.71-37.26,70.71-99.46-26.4-99.46-70.71-99.46-71,37.26-71,99.46m281.65-96.52h-84.79v-23.47h212.7v23.47h-85.08v216.52h-42.83V66.6Zm213.88-23.47h-42.83v239.7h42.83V43.13Zm163.42,218.87c19.07,0,53.1-5.87,67.77-46.35l4.11-11.74,20.83,10.27-3.52,9.39c-14.38,39.31-47.53,61.9-90.95,61.9-65.42,0-114.42-52.81-114.42-122.64s50.17-123.22,114.42-123.22c43.13,0,76.28,22.88,90.36,62.49l3.23,9.39-20.83,10.86-4.11-11.74c-10.56-29.63-34.91-46.65-67.19-46.65-44.59,0-71.29,36.97-71.29,98.87s26.99,99.16,71.59,99.16m543.64-22.59l-12.32-36.38c-4.99-13.5-14.38-24.64-26.7-31.98,22.3-9.98,41.66-28.75,41.66-58.68,0-43.42-34.62-69.24-92.71-69.24h-87.43v239.7h43.13v-102.1h37.55c27.58,0,36.38,11.15,44.01,32.86l12.03,34.62c2.93,10.56,7.63,20.54,13.5,29.93l3.23,4.69h57.8l-20.54-19.07c-6.16-7.04-10.86-15.26-13.2-24.35m-134.37-173.1h41.37c36.09,0,51.64,13.79,51.64,46.06s-15.84,44.89-51.34,44.89h-41.66v-90.95Zm199.8-23.47h43.13v239.7h-42.83l-.29-239.7Zm205.96-3.23c-63.96,0-115.89,55.16-115.89,123.22s52.22,123.22,115.89,123.22,115.89-54.86,115.89-122.93-51.93-123.22-115.89-123.52m0,23.47c44.3,0,70.71,37.26,70.71,99.46s-26.4,99.46-70.71,99.46-71-36.97-71-99.16,26.7-99.46,71-99.75M1492.16,4.99h25.23l-19.66,46.35,102.68,231.48h-45.47l-36.09-81.56h-84.79l-35.21,81.27h-25.23L1492.16,4.99Zm-17.02,98.87l-31.39,73.93h64.25l-32.86-73.93Z"/>
  </g>
</svg>