<?xml version="1.0" encoding="UTF-8"?>
<svg id="Camada_2" data-name="Camada 2" xmlns="http://www.w3.org/2000/svg" viewBox="0 0 379.2 153.72">
  <defs>
    <style>
      .cls-1 {
        fill: #fff;
      }

      .cls-2 {
        fill: #333287;
      }
    </style>
  </defs>
  <g id="Camada_1-2" data-name="Camada 1">
    <g>
      <path class="cls-1" d="m215.35,125.51c-.08-.07-.17-.14-.25-.21.13-1.14.26-2.27.41-3.53-1.73,0-3.36,0-4.99,0-.83,0-.82.52-.69,1.23.64,0,1.23.03,1.82,0,.85-.06,1.02.36.91,1.1-.53,3.63-1.04,7.26-1.54,10.9-.32,2.28-.61,4.55-.92,6.87h2.68c.27-1.9.48-3.76.8-5.59.51-2.9.88-5.85,1.75-8.64.46-1.5,1.76-2.79,2.83-4.03.47-.54,1.32-.95,2.17-.25-.24.34-.63.66-.65.99-.04.67-.06,1.45.26,1.98.18.29,1.12.34,1.61.17.97-.33,1.62-2.16,1.32-3.33-.3-1.18-1.33-2.01-2.59-1.8-.82.13-1.74.48-2.34,1.03-.98.91-1.74,2.06-2.59,3.1Z"/>
      <path class="cls-1" d="m182,30.41c-1.77-.95-3.35-1.97-5.05-2.69-4.52-1.93-9.26-2.31-14.1-1.69-9.84,1.26-17.26,6.14-21.92,14.93-3.78,7.13-4.46,14.77-2.93,22.59,1.87,9.56,7.09,16.62,16.32,20.18,7.94,3.06,16.09,3.35,24.13.41,4.21-1.54,8.07-1.6,11.82,1.03.47.33,1.08.54,1.66.64,1.25.21,1.77-.37,1.7-1.61-.3-4.86-.78-9.72-.8-14.58-.09-21.96-.04-43.91-.04-65.87,0-.32,0-.64,0-.96-.06-1.73-.71-2.55-2.42-2.67-1.79-.13-3.6-.16-5.39-.08-2.31.1-2.99.91-2.99,3.24,0,8.64,0,17.28,0,25.92,0,.43,0,.86,0,1.21Z"/>
      <path class="cls-1" d="m366.88,33.32c-.45-.5-.68-.77-.92-1.03-2.35-2.6-5.12-4.57-8.52-5.53-10.54-2.99-24.46.44-31.5,13.24-4.56,8.28-5.18,17.07-2.77,26.11,2.01,7.53,6.43,13.29,13.5,16.67,8.15,3.89,16.66,4.31,25.32,1.78.92-.27,1.83-.57,2.72-.91,3.13-1.19,6.09-.83,8.95.88.91.54,1.9,1.04,2.93,1.28,1.15.27,1.67-.41,1.6-1.58-.32-5.37-.82-10.74-.87-16.12-.13-12.75-.04-25.51-.04-38.26,0-1.52-.57-2.43-1.95-2.52-2.14-.14-4.31-.13-6.45,0-1.34.08-1.97.99-1.99,2.39-.02,1.11,0,2.22,0,3.63Z"/>
      <path class="cls-1" d="m236.85,25.67c-.74.03-1.67.04-2.58.12-9.76.86-17.5,5.23-22.86,13.48-4.51,6.95-5.76,14.66-4.51,22.74,1.48,9.57,6.38,16.84,15.22,21.17,5.95,2.91,12.27,3.73,18.79,2.89,9.84-1.27,17.17-6.32,21.84-15.07,3.43-6.42,4.26-13.34,3.3-20.47-.84-6.29-3.26-11.92-7.77-16.49-5.83-5.92-13.11-8.25-21.43-8.36Z"/>
      <path class="cls-1" d="m123.84,54.12c-.05,0-.11,0-.16,0,0-8.04,0-16.08,0-24.11,0-1.89-.63-2.66-2.51-2.77-1.83-.11-3.68-.13-5.51-.03-2.1.12-2.7.86-2.7,2.97,0,11.92,0,23.83,0,35.75,0,1.8-.04,3.6-.21,5.38-.4,4.15-1.92,7.66-6.22,9.08-4.1,1.35-8.32,1.61-12.51.46-4.89-1.33-7.41-4.98-8.85-9.56-1.27-4.05-1.53-8.24-1.55-12.43-.05-9.6-.01-19.2-.02-28.79,0-1.97-.59-2.71-2.57-2.84-1.83-.11-3.68-.11-5.51,0-2.03.11-2.62.85-2.62,2.91,0,9.32-.09,18.64.05,27.95.05,3.3.37,6.63,1.02,9.86,1.26,6.3,4.23,11.6,10.05,14.88,3.84,2.17,8.06,2.93,12.4,3.2,5.3.33,10.41-.55,15.37-2.43,3.05-1.16,5.94-.82,8.65,1.04.56.38,1.14.8,1.77.96.61.16,1.44.23,1.89-.08.35-.24.41-1.13.37-1.71-.15-2.11-.57-4.21-.59-6.31-.07-7.79-.03-15.59-.03-23.39Z"/>
      <path class="cls-1" d="m14.13,54.56c.19-.09.24-.13.3-.14,4.85-1.06,7.65-4.49,7.65-9.42,0-3.52-.02-7.04,0-10.56.02-1.98.71-2.73,2.66-2.73,6,0,12-.09,17.99.15,5.76.23,10.02,2.95,12.19,8.49.55,1.41,1.04,2.84,1.5,4.28.3.92.81,1.48,1.83,1.33,1.01-.15,1.22-.89,1.18-1.77-.22-4.83-.42-9.66-.67-14.48-.08-1.5-.82-2.24-2.3-2.45-.55-.08-1.11-.11-1.67-.11-15.76,0-31.52,0-47.28,0-.32,0-.68-.08-.95.04-.4.19-.94.47-1.02.81-.11.42.06,1.05.34,1.39.3.37.86.54,1.33.75,1.02.45,2.08.81,3.07,1.32,1.43.74,2.13,1.95,2.11,3.61-.03,3.44.01,6.88-.02,10.32-.03,4.14-1.63,6.18-5.65,7.13-1.59.38-3.22.56-4.83.87-.77.15-1.9,0-1.92,1.16-.02,1.26,1.18,1.07,1.97,1.24,1.94.43,3.93.72,5.84,1.23,2.25.61,3.63,2.16,3.92,4.49.21,1.7.22,3.42.35,5.13.85,10.84,6.26,16.99,16.92,19.18,6.42,1.32,12.88,1.27,19.29.05,3.04-.58,5.99-1.61,8.95-2.55,1.41-.45,2.38-1.44,2.44-3.07.16-4.23.33-8.46.47-12.69.03-.8-.22-1.54-1.18-1.68-.96-.14-1.63.22-1.89,1.21-.23.85-.45,1.7-.74,2.52-2.04,5.87-5.74,10.11-11.91,11.76-3.89,1.04-7.83.83-11.76.1-5.54-1.03-8.81-4.28-9.66-9.83-.36-2.32-.41-4.69-.52-7.04-.23-4.95-2.53-8.03-7.22-9.6-.36-.12-.7-.28-1.15-.46Z"/>
      <path class="cls-1" d="m280.48,58.69h.07c0,7.6,0,15.2,0,22.79,0,2.14.76,2.99,2.91,3.08,1.72.08,3.44.08,5.16,0,2.21-.1,2.94-.94,2.94-3.17,0-11.4-.02-22.79.02-34.19,0-1.91.18-3.84.5-5.72.68-3.92,2.51-6.99,6.75-7.91,4.45-.97,8.56-.19,12.26,2.54.8.59,1.66,1.13,2.57,1.51,1.35.57,2.55.02,2.8-1.31.42-2.19.81-4.4,1.02-6.62.21-2.24-.71-3.23-3-3.42-3.36-.28-6.74-.26-9.99.68-2.86.82-5.6,2.05-8.43,3-4.6,1.55-9.13,2.1-13.26-1.31-.21-.17-.47-.38-.72-.4-.65-.05-1.45-.22-1.9.09-.35.24-.4,1.13-.36,1.71.17,2.35.59,4.69.62,7.03.08,7.2.03,14.39.03,21.59Z"/>
      <path class="cls-1" d="m239.08,140.54c1.16-2.73,2.24-5.28,3.36-7.82.08-.17.47-.29.71-.29,2.84-.02,5.67-.01,8.62-.01.39,2.53.79,5.01,1.12,7.49.03.22-.37.61-.65.71-.36.13-.79.05-1.19.03-.88-.04-1.11.39-.9,1.28h8.47c-.38,2.76-.76,5.41-1.11,8.05-.29,2.17-.28,2.14-2.35,2.37-.33.04-.61.53-.91.81.28.17.56.5.84.5,2.24.04,4.48,0,6.72.03.92.01,1.08-.45.89-1.38-.55,0-1.1-.06-1.64.01-1.12.14-1.25-.37-1.09-1.33.35-2.09.59-4.19.88-6.29.29-2.12.59-4.24.93-6.65.35.66.55,1.04.76,1.42,1.7,3.1,4.64,3.72,7.22,1.29,1.25-1.18,2.34-2.67,3.04-4.23,1.78-3.98,2.41-8.14.49-12.28-1.54-3.32-4.56-3.9-7.34-1.5-.79.68-1.46,1.51-2.4,2.48.15-1.32.27-2.36.39-3.47-1.59,0-3.07.03-4.54-.01-.93-.03-1.08.4-.87,1.25.4,0,.75,0,1.1,0,1.55,0,1.58.08,1.35,1.66-.31,2.13-.59,4.27-.88,6.41-.44,3.16-.88,6.32-1.33,9.57-.56,0-1.08-.04-1.59,0-.85.08-1.23-.3-1.35-1.13-.88-6.08-1.79-12.17-2.69-18.25-.5-3.39-1.01-6.77-1.52-10.13-1-.25-1.55-.03-1.95.92-3.74,8.93-7.56,17.83-11.27,26.78-.56,1.34-1.22,2.04-2.72,1.81-.93-.15-1.2.34-.94,1.27,2.07,0,4.1,0,6.14,0,.85,0,.82-.54.72-1.2-.8-.06-1.57-.12-2.55-.2Z"/>
      <path class="cls-1" d="m109.86,141.9c.42-3.04.93-5.96,1.19-8.9.34-3.86,2.19-6.86,4.97-9.37.71-.64,1.61-1.12,2.63-.64,1.05.5,1.14,1.52,1.04,2.47-.22,2.26-.53,4.52-.83,6.77-.42,3.19-.86,6.39-1.3,9.65h2.61c.41-2.97.96-5.88,1.19-8.82.3-3.77,1.96-6.77,4.63-9.29.77-.72,1.72-1.3,2.82-.77,1.14.55,1.12,1.66,1.01,2.71-.17,1.63-.41,3.25-.64,4.87-.38,2.77-.79,5.53-1.13,8.3-.22,1.83,1.06,3.5,2.47,3.35,2.3-.25,5.37-3.31,5.71-6.06-.57.48-.94.74-1.24,1.06-.9.96-1.72,1.98-2.67,2.89-.29.28-.86.27-1.29.39-.11-.43-.35-.87-.3-1.29.33-2.81.79-5.61,1.08-8.43.23-2.21.46-4.45.33-6.65-.1-1.83-1.47-2.73-3.29-2.81-2.15-.09-3.47,1.2-4.67,2.69-.64.81-1.19,1.7-1.9,2.73-.08-.88-.11-1.51-.2-2.14-.38-2.57-2.37-3.99-4.73-3.06-1.26.5-2.36,1.56-3.33,2.57-.8.82-1.3,1.93-2.12,3.2.24-2.03.44-3.72.65-5.54-1.81,0-3.52-.03-5.23.03-.25,0-.49.47-.73.72.26.16.5.39.78.46.34.08.72.05,1.07.01.95-.11,1.3.23,1.16,1.22-.47,3.2-.88,6.41-1.31,9.61-.36,2.67-.71,5.34-1.07,8.06h2.61Z"/>
      <path class="cls-1" d="m186.26,138.86c-.08-.1-.15-.21-.23-.31-.02.2-.05.39-.04.59.05,2.72,1.85,3.82,4.22,2.53,2.01-1.1,3.18-2.92,4.03-5.05-.5.12-.92.35-1.25.67-.95.96-1.82,1.99-2.79,2.92-.27.25-.99.44-1.15.28-.28-.26-.43-.84-.38-1.25.73-5.5,1.5-10.99,2.26-16.49.44-3.24.92-6.48,1.28-9.74.26-2.4-.86-3.56-3.2-3.56-.44,0-.88.02-1.32,0-.85-.04-1.17.32-.9,1.29.7,0,1.41.02,2.12,0,.76-.02.99.33.87,1.04-.17,1.02-.31,2.05-.45,3.08-.49,3.49-.98,6.98-1.51,10.76-.28-.53-.43-.8-.57-1.07-1.96-3.74-5.38-4.13-8.18-.95-1.67,1.9-2.79,4.1-3.3,6.56-.69,3.3-.88,6.59.85,9.68,1.55,2.77,4.26,3.27,6.76,1.31.97-.76,1.93-1.53,2.9-2.29Z"/>
      <path class="cls-1" d="m141.69,152.33c.65-4.77,1.27-9.35,1.93-14.27.34.63.53.96.7,1.29,1.71,3.25,4.6,3.84,7.38,1.41,1.82-1.59,2.97-3.65,3.66-5.94,1.07-3.56,1.47-7.15-.23-10.63-1.58-3.24-4.54-3.82-7.27-1.48-.88.76-1.61,1.69-2.49,2.63.15-1.23.29-2.36.45-3.58-1.59,0-3.06.04-4.53-.01-.93-.03-1.09.38-.89,1.14,2.73.35,2.67.34,2.29,3.04-1.12,7.98-2.21,15.97-3.28,23.96-.3,2.22-.25,2.23-2.41,2.43-.08,0-.2-.03-.23.01-.24.28-.45.57-.68.85.26.17.5.43.78.48.47.08.96.02,1.44.02,1.76,0,3.52.04,5.27-.03.38-.02.74-.47,1.11-.73-.34-.2-.66-.52-1.03-.58-.57-.1-1.17-.03-1.95-.03Z"/>
      <path class="cls-1" d="m10.21,112.79c.07.13.15.26.22.38.5,0,1.01.04,1.51,0,.79-.07,1.14.24,1.26,1.05.69,4.78,1.42,9.55,2.14,14.33.65,4.34,1.29,8.69,1.97,13.03.05.31.44.82.61.79.39-.06.75-.37,1.09-.61.11-.08.14-.28.2-.43,3.79-8.78,7.61-17.55,11.33-26.36.56-1.33,1.21-2.05,2.71-1.8.82.14,1.22-.23.99-1.22-2.09,0-4.2-.03-6.31.04-.27,0-.51.58-.94,1.1,1.18.08,1.94.13,2.9.19-3.43,8.03-6.77,15.85-10.11,23.68-.58-2.19-.89-4.31-1.2-6.43-.8-5.45-1.58-10.9-2.4-16.35-.12-.78.15-1.04.87-1,.32.02.64-.02.96,0,.92.08,1.08-.38.91-1.24-2.64,0-5.23-.03-7.82.04-.3,0-.59.53-.88.81Z"/>
      <path class="cls-1" d="m24.2,54.58c0,2.2-.02,4.4.02,6.6,0,.35.22.7.34,1.05.31-.2.71-.33.93-.6,1.48-1.84,3.37-3.01,5.59-3.73,4.41-1.43,9-1.74,13.58-2.09.85-.07,2-.01,2.02-1.2.02-1.2-1.13-1.12-1.98-1.22-3.33-.39-6.68-.66-9.98-1.2-3.63-.59-7.08-1.7-9.4-4.91-.13-.18-.64-.35-.68-.3-.2.25-.4.58-.4.88-.03,2.24-.02,4.48-.02,6.72Z"/>
      <path class="cls-1" d="m173.52,130.51c-.25-1.52-.34-3.1-.79-4.56-.73-2.38-2.19-4.21-4.86-4.54-2.52-.31-4.51.85-6.1,2.68-3.14,3.6-4.2,7.84-3.34,12.49.46,2.48,1.63,4.68,4.26,5.47,2.7.81,4.91-.27,6.78-2.21,2.51-2.59,3.64-5.75,4.04-9.33Z"/>
      <path class="cls-1" d="m43.01,130.13c-.03-2.39-.35-4.33-1.48-6.07-1.57-2.43-4.05-3.34-6.74-2.28-1.04.42-2.09,1.06-2.87,1.86-3.58,3.67-4.75,8.14-3.77,13.11.49,2.48,1.73,4.65,4.39,5.35,2.66.7,4.83-.4,6.65-2.31,2.68-2.81,3.74-6.23,3.81-9.67Z"/>
      <path class="cls-1" d="m288.09,133.92c.05.63.02,1.32.16,1.98.19.89.4,1.8.76,2.63,1.77,4.02,6.11,5.04,9.46,2.18,3.83-3.27,5.12-7.57,4.73-12.45-.07-.94-.32-1.9-.66-2.78-1.67-4.33-6.17-5.46-9.7-2.45-3.32,2.83-4.61,6.59-4.75,10.88Z"/>
      <path class="cls-1" d="m104.59,136.64c-.09-.1-.18-.21-.27-.31-.39.32-.8.62-1.18.96-1.19,1.1-2.22,2.44-3.57,3.27-1.9,1.17-3.86.26-4.54-1.88-.68-2.14-.41-4.32-.15-6.59.85,0,1.61.03,2.36,0,2.2-.11,4.39-.32,6.28-1.63,2.1-1.45,2.85-3.89,1.92-6.1-.92-2.18-3.27-3.35-5.72-2.89-2.09.39-3.59,1.65-4.89,3.22-3.22,3.89-4.11,10.27-1.99,14.31,1.74,3.31,5.26,4.33,8.16,2.3,1.67-1.17,2.79-2.81,3.59-4.66Z"/>
      <path class="cls-1" d="m361.12,132.1c1.16,0,1.92.04,2.67,0,2.32-.13,4.63-.36,6.56-1.87,1.67-1.31,2.27-3.08,1.83-5.11-.42-1.92-1.71-3.11-3.62-3.58-2.21-.54-4.14.16-5.74,1.63-4.14,3.8-5.35,8.59-4.2,13.95.72,3.35,3.21,5.32,5.99,5.16,2.72-.16,5.61-2.74,6.26-5.81-.45.19-.86.45-1.19.78-1.04,1.02-1.93,2.26-3.12,3.07-2.23,1.54-4.62.6-5.09-2.04-.35-1.97-.24-4.02-.34-6.18Z"/>
      <path class="cls-1" d="m325.26,132.1c1.2,0,1.96.04,2.71,0,2.16-.12,4.31-.32,6.17-1.59,2.14-1.46,2.93-3.93,1.97-6.19-.91-2.15-3.3-3.31-5.75-2.84-1.73.33-3.1,1.25-4.23,2.53-3.55,4.03-4.61,8.69-3.09,13.81.7,2.36,2.21,4.17,4.94,4.43,3.02.28,6.31-2.33,7.08-5.79-.46.19-.86.45-1.21.78-1.11,1.07-2.06,2.36-3.32,3.2-2.04,1.36-4.35.46-4.83-1.93-.41-2.03-.31-4.16-.45-6.42Z"/>
      <path class="cls-1" d="m197.97,132.1c.93,0,1.69.03,2.44,0,2.08-.1,4.16-.3,5.99-1.43,1.86-1.15,2.8-2.85,2.55-5.05-.23-1.95-1.39-3.3-3.24-3.95-2.05-.71-3.96-.23-5.65,1.04-2.91,2.17-4.41,5.18-4.99,8.7-.48,2.92-.31,5.75,1.37,8.3,1.84,2.78,5.02,3.43,7.72,1.58,1.69-1.16,2.74-2.83,3.45-4.79-.5.14-.92.39-1.25.72-1.01,1-1.86,2.23-3.02,3.02-2.5,1.7-4.94.61-5.33-2.39-.24-1.83-.04-3.72-.04-5.75Z"/>
      <path class="cls-1" d="m62.61,132.13c.97,0,1.77.03,2.57,0,2.01-.09,3.98-.34,5.76-1.39,1.86-1.1,2.81-2.73,2.6-4.88-.21-2.11-1.45-3.54-3.47-4.15-2.01-.61-3.92-.15-5.52,1.15-4.19,3.42-5.53,7.96-4.92,13.17.23,1.95,1.04,3.69,2.56,5.01,1.6,1.4,3.47,1.64,5.38.88,2.39-.95,3.67-2.97,4.57-5.31-.53.13-.93.42-1.28.76-1.05,1.02-1.95,2.26-3.15,3.04-2.26,1.47-4.64.43-5.03-2.24-.28-1.94-.05-3.95-.05-6.03Z"/>
      <path class="cls-1" d="m303.86,126.95c.1.11.2.22.3.33.38-.3.79-.57,1.13-.91.91-.94,1.75-1.95,2.7-2.84.29-.27.84-.28,1.26-.4.11.44.35.89.31,1.31-.32,2.7-.72,5.38-1.05,8.08-.24,2.02-.55,4.04-.58,6.07-.04,2.6,1.72,4,4.32,3.7,1.79-.2,3.12-1.18,4.23-2.49,3.89-4.6,5.49-9.93,4.83-15.91-.07-.66-.46-1.36-.91-1.87-.25-.28-.99-.38-1.37-.22-.37.15-.84.78-.79,1.12.1.64.4,1.54.88,1.77,1.16.54,1.23,1.43,1.25,2.43.06,3.98-1.26,7.55-3.54,10.72-.8,1.11-2.05,2.04-3.3,2.66-1.87.93-3.13.06-3-2,.16-2.58.54-5.16.86-7.73.24-1.94.56-3.87.81-5.81.17-1.37-.3-2.62-1.4-3.37-1.01-.7-2.09,0-2.99.54-1.89,1.12-3.02,2.9-3.94,4.83Z"/>
      <path class="cls-1" d="m56.95,124.33c-.47,1.48-.91,2.54-1.09,3.64-.06.36.52,1.1.91,1.19.52.12,1.29-.08,1.68-.44.42-.38.68-1.1.74-1.69.34-3.34-2.84-6.17-6.15-5.56-2.42.44-4.11,1.94-5.39,3.87-2.82,4.25-3.66,8.81-1.53,13.61.79,1.78,2.18,2.98,4.24,3.32,2.92.49,6.14-1.92,7.28-5.8-.43.17-.83.4-1.14.72-.85.89-1.58,1.91-2.49,2.71-1.12.98-2.47,1.54-3.97.87-1.52-.67-1.92-2.09-2.04-3.54-.24-2.93.01-5.84.84-8.65.41-1.4,1-2.78,1.74-4.03.95-1.6,2.54-2.28,4.32-1.71.91.29,1.63,1.17,2.06,1.5Z"/>
      <path class="cls-1" d="m80.44,123.14c.8,0,1.54.03,2.29,0,.77-.03,1.09.24.96,1.06-.38,2.44-.71,4.89-1.06,7.34-.34,2.41-.71,4.81-1.03,7.23-.18,1.34.32,2.63,1.39,3.21.69.37,1.95.08,2.77-.3,2.11-.99,3.3-2.87,4.13-5.04-.48.1-.88.32-1.19.63-.95.96-1.82,1.99-2.81,2.91-.29.27-.96.44-1.27.29-.26-.13-.41-.82-.36-1.23.68-5.06,1.41-10.11,2.11-15.17.1-.71.46-.94,1.13-.92.88.03,1.76,0,2.64,0,.85.02,1.17-.36.94-1.31h-4.4c.27-2.05.52-3.97.77-5.9-.11-.07-.22-.14-.33-.22-.26.25-.61.45-.75.75-.47.96-.97,1.93-1.28,2.96-.55,1.81-1.49,2.87-3.56,2.4-.78-.18-1.21.2-1.09,1.31Z"/>
      <path class="cls-1" d="m346.83,123.14c.82,0,1.62,0,2.41,0,.68,0,.91.28.81.97-.44,2.92-.85,5.84-1.26,8.76-.29,2.05-.64,4.1-.82,6.16-.17,1.99,1.3,3.56,2.87,3.15,2.87-.76,4.31-2.99,5.41-5.56-.5.1-.91.33-1.22.65-.85.88-1.61,1.87-2.52,2.69-.38.34-1.05.37-1.59.53-.1-.52-.34-1.05-.27-1.54.67-4.94,1.41-9.87,2.08-14.81.11-.78.44-1.03,1.16-1.01.84.03,1.69.09,2.51-.03.4-.06.76-.47,1.13-.72-.35-.19-.7-.52-1.06-.54-1.14-.07-2.28-.03-3.45-.03.27-2.06.53-3.98.79-5.9-.12-.07-.24-.14-.36-.2-.25.26-.59.48-.74.79-.48.96-1,1.93-1.29,2.95-.53,1.86-1.51,2.84-3.56,2.39-.81-.18-1.2.23-1.01,1.31Z"/>
      <path class="cls-1" d="m279.19,141.87c.29-2.12.51-4.18.87-6.21.49-2.74.89-5.52,1.72-8.16.44-1.4,1.61-2.62,2.61-3.77.54-.62,1.41-1.08,2.29-.42-.28.57-.7,1.08-.77,1.63-.06.48.14,1.23.48,1.46.4.26,1.18.27,1.64.06,1.11-.51,1.62-2.51,1.08-3.71-.51-1.14-1.87-1.79-3.12-1.25-.95.41-1.84,1.09-2.59,1.82-.72.7-1.23,1.62-1.99,2.64.18-1.52.33-2.8.49-4.18-.54,0-.97,0-1.41,0-1.2,0-2.4-.01-3.6,0-.86.01-.75.57-.67,1.14.91.08,2.1-.13,2.45.31.4.52.15,1.62.04,2.46-.72,5.37-1.48,10.74-2.24,16.18h2.71Z"/>
      <path class="cls-1" d="m346.57,136.83c-.09-.13-.18-.26-.27-.38-.37.26-.78.47-1.09.79-.88.91-1.68,1.91-2.61,2.77-.35.33-.98.36-1.48.52-.11-.51-.37-1.04-.31-1.53.31-2.54.7-5.06,1.06-7.59.31-2.21.64-4.42.91-6.64.17-1.35-.5-2.8-1.38-2.89-1.19-.12-2.4-.08-3.59-.02-.21.01-.48.46-.57.75-.03.11.36.46.6.5.51.08,1.04.03,1.56.03.66,0,.92.25.81.96-.37,2.33-.68,4.66-1.01,6.99-.37,2.61-.88,5.21-1.03,7.83-.13,2.2,1.17,4.38,4.09,2.82,2.06-1.1,3.32-2.9,4.33-4.91Z"/>
      <path class="cls-1" d="m69.47,112.48c-2.06,2.17-4.08,4.3-6.36,6.71,2.12-1.36,3.96-2.54,5.82-3.73,1.59,1.21,3.15,2.39,4.7,3.58.13-.12.26-.24.4-.36-1.4-2.14-3.05-4.1-4.56-6.18Z"/>
      <path class="cls-1" d="m224.9,137.14c-1.38-.01-2.42,1-2.46,2.39-.04,1.43,1.05,2.57,2.44,2.56,1.35,0,2.38-1.08,2.38-2.47,0-1.41-1.01-2.46-2.36-2.48Z"/>
      <path class="cls-1" d="m374.4,139.57c-.02,1.39.99,2.47,2.35,2.5,1.37.04,2.43-.99,2.45-2.38.03-1.5-.96-2.56-2.39-2.56-1.36,0-2.39,1.04-2.41,2.43Z"/>
      <path class="cls-1" d="m344.96,113.42c-.02-1.32-.84-2.21-2.01-2.16-1.06.04-1.91,1.01-1.92,2.19-.01,1.2.92,2.25,2,2.25,1.12,0,1.94-.97,1.92-2.27Z"/>
      <path class="cls-2" d="m182,30.41c0-.35,0-.78,0-1.21,0-8.64,0-17.28,0-25.92,0-2.33.68-3.14,2.99-3.24,1.79-.08,3.6-.05,5.39.08,1.71.12,2.36.94,2.42,2.67.01.32,0,.64,0,.96,0,21.96-.05,43.91.04,65.87.02,4.86.5,9.72.8,14.58.08,1.24-.44,1.83-1.7,1.61-.57-.1-1.18-.31-1.66-.64-3.75-2.63-7.61-2.57-11.82-1.03-8.05,2.94-16.2,2.65-24.13-.41-9.24-3.56-14.45-10.62-16.32-20.18-1.53-7.82-.86-15.46,2.93-22.59,4.66-8.79,12.08-13.68,21.92-14.93,4.84-.62,9.58-.24,14.1,1.69,1.7.73,3.29,1.74,5.05,2.69Zm-.12,27.31c0-4.32.26-8.65-.06-12.95-.55-7.45-4.72-13.9-13.7-14.31-7.26-.33-13.16,2.42-16.4,9.64-1.69,3.77-2.31,7.78-2.56,11.87-.34,5.63.01,11.19,1.77,16.57,1.62,4.94,4.3,9.1,9.19,11.42,3.92,1.86,8.05,1.78,12.21,1.15,2.11-.32,4.13-.94,5.83-2.3,2.61-2.08,3.56-5,3.67-8.15.16-4.31.04-8.63.04-12.95Z"/>
      <path class="cls-2" d="m366.88,33.32c0-1.41-.01-2.52,0-3.63.02-1.4.64-2.31,1.99-2.39,2.15-.13,4.31-.13,6.45,0,1.38.09,1.95,1,1.95,2.52,0,12.76-.09,25.51.04,38.26.05,5.38.55,10.75.87,16.12.07,1.17-.45,1.85-1.6,1.58-1.02-.24-2.01-.74-2.93-1.28-2.86-1.7-5.81-2.06-8.95-.88-.89.34-1.8.65-2.72.91-8.66,2.53-17.17,2.11-25.32-1.78-7.07-3.38-11.49-9.14-13.5-16.67-2.41-9.03-1.79-17.82,2.77-26.11,7.04-12.8,20.96-16.22,31.5-13.24,3.4.96,6.17,2.93,8.52,5.53.24.26.47.53.92,1.03Zm-.44,24.45s.09,0,.13,0c0-3.44.1-6.88-.04-10.31-.07-1.89-.31-3.84-.87-5.64-2.12-6.84-8.07-11.29-14.94-11.4-7.21-.11-12.38,3.58-15.02,10.74-1.27,3.44-1.78,7.03-1.99,10.66-.34,5.9.01,11.74,2.01,17.36,1.81,5.09,4.78,9.2,10.02,11.23,3.66,1.42,7.43,1.28,11.22.7,2.28-.35,4.42-1.06,6.17-2.65,2.35-2.14,3.17-4.97,3.27-7.98.14-4.23.03-8.47.03-12.7Z"/>
      <path class="cls-2" d="m236.85,25.67c8.32.1,15.6,2.43,21.43,8.36,4.51,4.57,6.92,10.2,7.77,16.49.96,7.13.13,14.05-3.3,20.47-4.68,8.75-12.01,13.8-21.84,15.07-6.51.84-12.84.02-18.79-2.89-8.84-4.32-13.74-11.6-15.22-21.17-1.25-8.08,0-15.79,4.51-22.74,5.36-8.25,13.1-12.62,22.86-13.48.91-.08,1.83-.09,2.58-.12Zm18.27,31.89c.06-4-.4-8.19-1.51-12.3-1.13-4.18-2.85-8.1-6.19-11-5.37-4.66-11.52-4.93-17.85-2.51-5.46,2.09-8.45,6.52-9.98,11.95-2.16,7.64-1.72,15.32.17,22.95,1.05,4.25,2.93,8.07,6.17,11.14,6.71,6.34,20.95,5.29,26.2-5.23,2.32-4.66,3.07-9.61,3-15Z"/>
      <path class="cls-2" d="m123.84,54.12c0,7.8-.04,15.59.03,23.39.02,2.1.44,4.2.59,6.31.04.58-.01,1.47-.37,1.71-.45.31-1.29.24-1.89.08-.63-.17-1.22-.58-1.77-.96-2.71-1.86-5.6-2.2-8.65-1.04-4.96,1.88-10.07,2.76-15.37,2.43-4.34-.27-8.56-1.03-12.4-3.2-5.82-3.28-8.8-8.58-10.05-14.88-.64-3.23-.97-6.57-1.02-9.86-.13-9.32-.05-18.63-.05-27.95,0-2.06.59-2.79,2.62-2.91,1.83-.1,3.68-.11,5.51,0,1.98.12,2.57.86,2.57,2.84,0,9.6-.03,19.2.02,28.79.02,4.2.29,8.38,1.55,12.43,1.44,4.58,3.96,8.22,8.85,9.56,4.19,1.14,8.41.89,12.51-.46,4.31-1.42,5.82-4.93,6.22-9.08.17-1.78.21-3.59.21-5.38.02-11.92,0-23.83,0-35.75,0-2.11.6-2.85,2.7-2.97,1.83-.1,3.68-.08,5.51.03,1.88.11,2.51.88,2.51,2.77,0,8.04,0,16.08,0,24.11.05,0,.11,0,.16,0Z"/>
      <path class="cls-2" d="m14.13,54.56c.45.18.79.34,1.15.46,4.69,1.57,6.99,4.66,7.22,9.6.11,2.35.17,4.72.52,7.04.85,5.54,4.12,8.79,9.66,9.83,3.92.73,7.87.94,11.76-.1,6.16-1.66,9.87-5.89,11.91-11.76.29-.83.51-1.68.74-2.52.26-.99.92-1.36,1.89-1.21.96.14,1.21.88,1.18,1.68-.13,4.23-.31,8.46-.47,12.69-.06,1.62-1.03,2.62-2.44,3.07-2.96.94-5.91,1.97-8.95,2.55-6.41,1.22-12.87,1.27-19.29-.05-10.65-2.19-16.06-8.34-16.92-19.18-.13-1.71-.14-3.43-.35-5.13-.29-2.33-1.67-3.88-3.92-4.49-1.92-.52-3.9-.8-5.84-1.23-.79-.18-1.99.02-1.97-1.24.02-1.16,1.14-1.01,1.92-1.16,1.61-.31,3.24-.5,4.83-.87,4.02-.95,5.62-2.99,5.65-7.13.03-3.44-.02-6.88.02-10.32.02-1.65-.68-2.86-2.11-3.61-.99-.51-2.05-.87-3.07-1.32-.47-.21-1.03-.38-1.33-.75-.28-.35-.45-.97-.34-1.39.09-.34.63-.62,1.02-.81.26-.12.63-.04.95-.04,15.76,0,31.52,0,47.28,0,.56,0,1.12.03,1.67.11,1.48.21,2.22.95,2.3,2.45.25,4.83.45,9.66.67,14.48.04.89-.18,1.62-1.18,1.77-1.01.15-1.53-.41-1.83-1.33-.47-1.44-.95-2.87-1.5-4.28-2.17-5.53-6.43-8.26-12.19-8.49-5.99-.24-11.99-.15-17.99-.15-1.95,0-2.65.75-2.66,2.73-.03,3.52,0,7.04,0,10.56,0,4.93-2.79,8.36-7.65,9.42-.06.01-.11.05-.3.14Z"/>
      <path class="cls-2" d="m280.48,58.69c0-7.2.05-14.4-.03-21.59-.03-2.35-.45-4.68-.62-7.03-.04-.58,0-1.47.36-1.71.45-.31,1.25-.13,1.9-.09.25.02.51.22.72.4,4.13,3.41,8.66,2.86,13.26,1.31,2.83-.95,5.57-2.18,8.43-3,3.25-.94,6.63-.96,9.99-.68,2.29.19,3.21,1.18,3,3.42-.21,2.22-.6,4.43-1.02,6.62-.25,1.32-1.46,1.88-2.8,1.31-.91-.38-1.77-.93-2.57-1.51-3.71-2.73-7.81-3.51-12.26-2.54-4.24.92-6.07,3.98-6.75,7.91-.33,1.88-.5,3.81-.5,5.72-.05,11.4-.02,22.79-.02,34.19,0,2.23-.73,3.07-2.94,3.17-1.72.08-3.44.08-5.16,0-2.16-.09-2.91-.95-2.91-3.08,0-7.6,0-15.2,0-22.79h-.07Z"/>
      <path class="cls-2" d="m239.08,140.54c.98.08,1.75.14,2.55.2.1.66.13,1.2-.72,1.2-2.03,0-4.07,0-6.14,0-.25-.94.01-1.42.94-1.27,1.49.23,2.16-.47,2.72-1.81,3.71-8.94,7.53-17.84,11.27-26.78.4-.95.95-1.18,1.95-.92.5,3.36,1.01,6.75,1.52,10.13.9,6.08,1.8,12.16,2.69,18.25.12.82.49,1.21,1.35,1.13.51-.05,1.02,0,1.59,0,.45-3.25.89-6.41,1.33-9.57.29-2.14.57-4.27.88-6.41.23-1.58.19-1.65-1.35-1.66-.35,0-.71,0-1.1,0-.21-.85-.07-1.28.87-1.25,1.47.04,2.95.01,4.54.01-.13,1.11-.24,2.15-.39,3.47.94-.98,1.6-1.8,2.4-2.48,2.78-2.4,5.8-1.82,7.34,1.5,1.91,4.14,1.29,8.3-.49,12.28-.7,1.56-1.79,3.06-3.04,4.23-2.58,2.43-5.52,1.82-7.22-1.29-.21-.38-.41-.76-.76-1.42-.34,2.41-.63,4.53-.93,6.65-.29,2.1-.53,4.2-.88,6.29-.16.96-.03,1.47,1.09,1.33.54-.07,1.09-.01,1.64-.01.18.92.03,1.39-.89,1.38-2.24-.02-4.48.01-6.72-.03-.28,0-.56-.33-.84-.5.3-.28.58-.78.91-.81,2.08-.23,2.07-.2,2.35-2.37.35-2.65.73-5.29,1.11-8.05h-8.47c-.21-.89.01-1.32.9-1.28.4.02.83.09,1.19-.03.28-.1.68-.5.65-.71-.33-2.48-.73-4.96-1.12-7.49-2.95,0-5.79,0-8.62.01-.24,0-.64.12-.71.29-1.12,2.54-2.19,5.09-3.36,7.82Zm23.4-6.72c-.09,2.18.34,4.21,1.71,5.96,1.07,1.36,2.67,1.56,3.98.44.5-.43.99-.98,1.25-1.57,1.89-4.19,2.54-8.6,2.02-13.16-.14-1.23-.6-2.33-1.95-2.75-1.39-.43-2.39.29-3.28,1.2-2.7,2.74-3.7,6.14-3.74,9.89Zm-10.9-2.98c-.69-4.69-1.38-9.3-2.06-13.91l-.22-.04c-2.02,4.63-4.03,9.25-6.08,13.95h8.36Zm12.1-5.55s-.05-.06-.07-.09c-.03.03-.07.05-.08.08,0,.03.04.06.07.09.03-.03.06-.05.08-.08Z"/>
      <path class="cls-2" d="m109.86,141.9h-2.61c.36-2.72.72-5.39,1.07-8.06.43-3.2.84-6.41,1.31-9.61.14-.99-.21-1.33-1.16-1.22-.35.04-.73.07-1.07-.01-.28-.07-.52-.3-.78-.46.24-.25.48-.71.73-.72,1.71-.06,3.41-.03,5.23-.03-.21,1.82-.41,3.52-.65,5.54.82-1.26,1.32-2.37,2.12-3.2.97-1,2.07-2.06,3.33-2.57,2.36-.94,4.35.48,4.73,3.06.09.63.12,1.26.2,2.14.71-1.03,1.26-1.92,1.9-2.73,1.19-1.5,2.52-2.79,4.67-2.69,1.83.08,3.19.98,3.29,2.81.12,2.21-.11,4.44-.33,6.65-.29,2.82-.75,5.62-1.08,8.43-.05.41.2.86.3,1.29.44-.12,1.01-.11,1.29-.39.94-.91,1.77-1.93,2.67-2.89.3-.32.68-.58,1.24-1.06-.34,2.75-3.41,5.81-5.71,6.06-1.41.15-2.69-1.52-2.47-3.35.34-2.77.75-5.54,1.13-8.3.22-1.62.47-3.24.64-4.87.11-1.04.13-2.16-1.01-2.71-1.1-.53-2.06.05-2.82.77-2.67,2.52-4.33,5.53-4.63,9.29-.23,2.94-.78,5.85-1.19,8.82h-2.61c.44-3.26.88-6.45,1.3-9.65.3-2.25.61-4.51.83-6.77.09-.96,0-1.97-1.04-2.47-1.02-.49-1.93,0-2.63.64-2.78,2.51-4.62,5.51-4.97,9.37-.26,2.94-.78,5.86-1.19,8.9Z"/>
      <path class="cls-2" d="m186.26,138.86c-.97.76-1.93,1.53-2.9,2.29-2.5,1.96-5.22,1.46-6.76-1.31-1.73-3.08-1.54-6.38-.85-9.68.52-2.46,1.63-4.66,3.3-6.56,2.8-3.19,6.22-2.79,8.18.95.14.27.28.53.57,1.07.53-3.78,1.02-7.27,1.51-10.76.15-1.03.28-2.06.45-3.08.12-.71-.12-1.07-.87-1.04-.71.02-1.42,0-2.12,0-.27-.97.05-1.33.9-1.29.44.02.88,0,1.32,0,2.35,0,3.47,1.16,3.2,3.56-.36,3.25-.83,6.49-1.28,9.74-.75,5.5-1.53,10.99-2.26,16.49-.05.41.1.99.38,1.25.17.16.89-.03,1.15-.28.98-.93,1.85-1.96,2.79-2.92.32-.33.75-.55,1.25-.67-.84,2.14-2.02,3.96-4.03,5.05-2.36,1.29-4.16.2-4.22-2.53,0-.19.03-.39.04-.59.08.1.15.21.23.31Zm-8.25-3.21c0,.4-.02.8,0,1.2.11,1.61.2,3.36,2,4.01,1.87.68,3.09-.63,4.14-1.92,2.69-3.3,3.42-7.18,2.88-11.26-.18-1.38-.95-2.79-1.79-3.94-1.02-1.4-2.77-1.36-3.95-.08-.66.72-1.21,1.6-1.57,2.5-1.22,3.03-1.55,6.25-1.72,9.48Z"/>
      <path class="cls-2" d="m141.69,152.33c.79,0,1.38-.07,1.95.03.37.06.69.38,1.03.58-.37.25-.73.71-1.11.73-1.76.08-3.52.03-5.27.03-.48,0-.97.06-1.44-.02-.28-.05-.52-.31-.78-.48.22-.29.44-.58.68-.85.03-.04.15,0,.23-.01,2.17-.2,2.12-.2,2.41-2.43,1.07-7.99,2.16-15.98,3.28-23.96.38-2.69.44-2.69-2.29-3.04-.2-.77-.04-1.17.89-1.14,1.47.05,2.95.01,4.53.01-.15,1.22-.29,2.35-.45,3.58.88-.94,1.6-1.88,2.49-2.63,2.74-2.34,5.69-1.76,7.27,1.48,1.7,3.48,1.3,7.07.23,10.63-.69,2.29-1.84,4.35-3.66,5.94-2.78,2.42-5.67,1.84-7.38-1.41-.18-.33-.36-.66-.7-1.29-.67,4.92-1.29,9.5-1.93,14.27Zm12.18-24.35c-.09-.03-.17-.06-.26-.08-.13-.98-.15-1.99-.4-2.95-.63-2.41-2.59-3.05-4.56-1.53-.44.34-.83.75-1.19,1.17-1.71,2-2.65,4.36-2.98,6.93-.36,2.8-.37,5.58,1.39,8.04,1.24,1.74,3.16,1.91,4.54.29.63-.74,1.22-1.64,1.45-2.57.76-3.07,1.35-6.19,2.01-9.29Z"/>
      <path class="cls-2" d="m10.21,112.79c.29-.28.58-.81.88-.81,2.59-.07,5.18-.04,7.82-.04.18.86,0,1.32-.91,1.24-.32-.03-.64,0-.96,0-.72-.04-.99.22-.87,1,.82,5.45,1.61,10.9,2.4,16.35.31,2.12.62,4.24,1.2,6.43,3.34-7.82,6.68-15.65,10.11-23.68-.96-.06-1.72-.11-2.9-.19.43-.52.68-1.09.94-1.1,2.11-.07,4.22-.04,6.31-.04.22,1-.18,1.36-.99,1.22-1.5-.25-2.14.47-2.71,1.8-3.73,8.81-7.55,17.58-11.33,26.36-.06.15-.09.35-.2.43-.34.25-.71.55-1.09.61-.17.02-.56-.49-.61-.79-.68-4.34-1.32-8.68-1.97-13.03-.72-4.78-1.45-9.55-2.14-14.33-.12-.81-.46-1.12-1.26-1.05-.5.04-1.01,0-1.51,0-.07-.13-.15-.26-.22-.38Z"/>
      <path class="cls-2" d="m24.2,54.58c0-2.24-.01-4.48.02-6.72,0-.3.2-.63.4-.88.04-.05.55.11.68.3,2.32,3.21,5.77,4.32,9.4,4.91,3.3.54,6.65.81,9.98,1.2.86.1,2,.02,1.98,1.22-.02,1.18-1.17,1.13-2.02,1.2-4.58.35-9.16.66-13.58,2.09-2.22.72-4.12,1.9-5.59,3.73-.22.27-.62.4-.93.6-.12-.35-.33-.7-.34-1.05-.03-2.2-.02-4.4-.02-6.6Z"/>
      <path class="cls-2" d="m173.52,130.51c-.4,3.58-1.53,6.74-4.04,9.33-1.87,1.93-4.08,3.02-6.78,2.21-2.64-.79-3.8-3-4.26-5.47-.86-4.65.19-8.89,3.34-12.49,1.59-1.82,3.58-2.99,6.1-2.68,2.66.33,4.13,2.16,4.86,4.54.45,1.46.54,3.03.79,4.56Zm-12.74,4.45c.34,1.69.48,2.93.86,4.09.47,1.42,1.56,2.05,3.06,1.96,1.92-.11,2.98-1.37,3.75-2.93,1.26-2.54,1.72-5.3,1.88-8.09.1-1.61.08-3.29-.28-4.85-.59-2.53-3.4-3.37-5.34-1.62-.85.77-1.67,1.83-1.98,2.9-.83,2.93-1.38,5.94-1.96,8.54Z"/>
      <path class="cls-2" d="m43.01,130.13c-.07,3.43-1.13,6.86-3.81,9.67-1.82,1.91-4,3.01-6.65,2.31-2.67-.7-3.91-2.87-4.39-5.35-.98-4.97.18-9.44,3.77-13.11.78-.8,1.83-1.44,2.87-1.86,2.69-1.07,5.17-.15,6.74,2.28,1.13,1.74,1.45,3.68,1.48,6.07Zm-12.64,5.21c.07.03.15.06.22.1.19,1.09.27,2.22.59,3.28.65,2.15,2.76,3.06,4.64,1.83,1.03-.68,2.08-1.79,2.44-2.93.82-2.55,1.36-5.22,1.74-7.89.21-1.5.08-3.13-.27-4.61-.59-2.48-3.3-3.35-5.26-1.68-.92.79-1.78,1.94-2.11,3.09-.83,2.89-1.35,5.87-1.99,8.81Z"/>
      <path class="cls-2" d="m288.09,133.92c.14-4.29,1.44-8.05,4.75-10.88,3.53-3.02,8.03-1.88,9.7,2.45.34.88.59,1.84.66,2.78.39,4.88-.89,9.18-4.73,12.45-3.35,2.86-7.7,1.84-9.46-2.18-.36-.83-.58-1.74-.76-2.63-.14-.66-.12-1.35-.16-1.98Zm2.62,1.12l.23.09c.13,1.1.15,2.23.42,3.31.63,2.56,3.24,3.47,5.31,1.81.77-.62,1.51-1.52,1.81-2.45.72-2.18,1.34-4.42,1.67-6.68.26-1.82.16-3.73,0-5.58-.12-1.26-.82-2.37-2.18-2.73-1.42-.38-2.76-.08-3.71,1.05-.7.84-1.4,1.81-1.68,2.84-.74,2.75-1.25,5.56-1.86,8.35Z"/>
      <path class="cls-2" d="m104.59,136.64c-.8,1.85-1.92,3.49-3.59,4.66-2.89,2.02-6.42,1-8.16-2.3-2.12-4.04-1.23-10.41,1.99-14.31,1.3-1.57,2.8-2.83,4.89-3.22,2.45-.46,4.8.71,5.72,2.89.94,2.22.18,4.65-1.92,6.1-1.89,1.31-4.08,1.52-6.28,1.63-.75.04-1.51,0-2.36,0-.26,2.26-.53,4.44.15,6.59.68,2.14,2.64,3.05,4.54,1.88,1.35-.83,2.38-2.17,3.57-3.27.37-.34.78-.64,1.18-.96.09.1.18.21.27.31Zm-9.93-5.51c1.23,0,2.05.04,2.87,0,3.38-.22,5.46-1.92,5.78-4.79.14-1.29-.16-2.53-1.31-3.27-1.11-.72-2.34-.54-3.38.18-.66.47-1.35,1.1-1.67,1.82-.83,1.87-1.46,3.82-2.29,6.06Z"/>
      <path class="cls-2" d="m361.12,132.1c.1,2.16-.02,4.21.34,6.18.48,2.64,2.87,3.58,5.09,2.04,1.18-.82,2.07-2.05,3.12-3.07.34-.33.74-.59,1.19-.78-.64,3.07-3.54,5.66-6.26,5.81-2.78.16-5.27-1.81-5.99-5.16-1.14-5.36.06-10.15,4.2-13.95,1.6-1.47,3.53-2.17,5.74-1.63,1.91.47,3.2,1.66,3.62,3.58.44,2.03-.15,3.8-1.83,5.11-1.93,1.51-4.24,1.73-6.56,1.87-.75.04-1.51,0-2.67,0Zm.05-1.13c2.37.31,4.27.29,5.92-.7.91-.54,1.75-1.42,2.25-2.35,1-1.86.44-4.17-.96-4.94-1.53-.85-3.71-.18-4.76,1.8-.99,1.87-1.59,3.94-2.46,6.19Z"/>
      <path class="cls-2" d="m325.26,132.1c.14,2.25.05,4.39.45,6.42.48,2.39,2.79,3.29,4.83,1.93,1.26-.84,2.21-2.13,3.32-3.2.34-.33.75-.59,1.21-.78-.77,3.47-4.06,6.08-7.08,5.79-2.72-.26-4.23-2.07-4.94-4.43-1.52-5.12-.47-9.78,3.09-13.81,1.13-1.29,2.5-2.2,4.23-2.53,2.45-.47,4.84.7,5.75,2.84.96,2.25.17,4.73-1.97,6.19-1.87,1.27-4.02,1.46-6.17,1.59-.75.04-1.51,0-2.71,0Zm.17-1.1c2.69.28,4.96.22,6.89-1.37,1.29-1.06,1.81-2.52,1.67-4.16-.2-2.4-2.29-3.59-4.38-2.38-.88.51-1.72,1.38-2.15,2.29-.81,1.71-1.31,3.56-2.02,5.61Z"/>
      <path class="cls-2" d="m197.97,132.1c0,2.03-.19,3.92.04,5.75.39,3,2.83,4.09,5.33,2.39,1.15-.78,2-2.02,3.02-3.02.33-.33.75-.58,1.25-.72-.71,1.96-1.76,3.63-3.45,4.79-2.7,1.85-5.88,1.2-7.72-1.58-1.69-2.55-1.86-5.38-1.37-8.3.58-3.52,2.08-6.53,4.99-8.7,1.69-1.26,3.6-1.75,5.65-1.04,1.85.64,3.01,1.99,3.24,3.95.26,2.19-.69,3.89-2.55,5.05-1.83,1.13-3.91,1.33-5.99,1.43-.75.04-1.51,0-2.44,0Zm.13-.74c1.87-.28,3.55-.35,5.11-.82,1.84-.55,2.93-1.97,3.2-3.94.23-1.66-.32-3.08-1.41-3.65-1.23-.63-2.85-.29-4.01.94-1.87,1.98-2.32,4.53-2.88,7.47Z"/>
      <path class="cls-2" d="m62.61,132.13c0,2.09-.22,4.1.05,6.03.38,2.67,2.77,3.7,5.03,2.24,1.2-.78,2.1-2.02,3.15-3.04.35-.34.74-.62,1.28-.76-.89,2.34-2.18,4.36-4.57,5.31-1.91.76-3.78.52-5.38-.88-1.51-1.32-2.33-3.05-2.56-5.01-.6-5.21.74-9.76,4.92-13.17,1.6-1.31,3.51-1.76,5.52-1.15,2.01.61,3.26,2.04,3.47,4.15.22,2.15-.74,3.78-2.6,4.88-1.78,1.05-3.75,1.3-5.76,1.39-.8.04-1.6,0-2.57,0Zm.11-.75c1.82-.26,3.46-.34,5.01-.75,1.64-.43,2.7-1.63,3.16-3.3.48-1.73-.09-3.64-1.28-4.28-1.37-.73-3.22-.17-4.44,1.34-.13.16-.26.31-.36.48-1.16,1.86-1.68,3.93-2.08,6.52Z"/>
      <path class="cls-2" d="m303.86,126.95c.92-1.93,2.05-3.71,3.94-4.83.9-.53,1.98-1.24,2.99-.54,1.1.76,1.57,2,1.4,3.37-.25,1.94-.57,3.87-.81,5.81-.32,2.57-.69,5.14-.86,7.73-.13,2.06,1.14,2.93,3,2,1.24-.62,2.5-1.54,3.3-2.66,2.28-3.17,3.6-6.74,3.54-10.72-.02-1-.09-1.89-1.25-2.43-.48-.22-.78-1.13-.88-1.77-.05-.34.41-.97.79-1.12.38-.16,1.12-.06,1.37.22.45.5.84,1.21.91,1.87.65,5.98-.94,11.31-4.83,15.91-1.11,1.31-2.44,2.29-4.23,2.49-2.6.3-4.36-1.1-4.32-3.7.03-2.03.34-4.05.58-6.07.33-2.69.73-5.38,1.05-8.08.05-.42-.2-.87-.31-1.31-.43.13-.98.13-1.26.4-.95.9-1.79,1.91-2.7,2.84-.33.34-.75.61-1.13.91-.1-.11-.2-.22-.3-.33Z"/>
      <path class="cls-2" d="m56.95,124.33c-.43-.33-1.15-1.21-2.06-1.5-1.78-.57-3.38.11-4.32,1.71-.74,1.25-1.33,2.63-1.74,4.03-.83,2.82-1.08,5.73-.84,8.65.12,1.46.52,2.87,2.04,3.54,1.51.67,2.85.11,3.97-.87.92-.81,1.65-1.82,2.49-2.71.3-.32.71-.55,1.14-.72-1.14,3.88-4.37,6.29-7.28,5.8-2.06-.34-3.45-1.54-4.24-3.32-2.13-4.8-1.29-9.36,1.53-13.61,1.28-1.93,2.97-3.43,5.39-3.87,3.31-.6,6.49,2.22,6.15,5.56-.06.6-.32,1.31-.74,1.69-.39.36-1.16.55-1.68.44-.39-.09-.97-.83-.91-1.19.18-1.1.62-2.16,1.09-3.64Z"/>
      <path class="cls-2" d="m80.44,123.14c-.13-1.11.3-1.48,1.09-1.31,2.07.47,3.01-.59,3.56-2.4.31-1.02.8-1.99,1.28-2.96.15-.3.5-.5.75-.75.11.07.22.14.33.22-.25,1.93-.5,3.85-.77,5.9h4.4c.23.94-.08,1.32-.94,1.31-.88-.02-1.76.02-2.64,0-.67-.02-1.03.21-1.13.92-.7,5.06-1.43,10.11-2.11,15.17-.05.41.09,1.09.36,1.23.31.15.98-.02,1.27-.29.99-.91,1.86-1.95,2.81-2.91.31-.31.7-.53,1.19-.63-.83,2.18-2.02,4.06-4.13,5.04-.82.38-2.08.67-2.77.3-1.08-.58-1.57-1.87-1.39-3.21.32-2.41.68-4.82,1.03-7.23.35-2.45.68-4.9,1.06-7.34.13-.82-.19-1.09-.96-1.06-.75.03-1.5,0-2.29,0Z"/>
      <path class="cls-2" d="m346.83,123.14c-.19-1.08.21-1.49,1.01-1.31,2.05.45,3.03-.53,3.56-2.39.29-1.02.82-1.99,1.29-2.95.15-.31.49-.53.74-.79.12.07.24.14.36.2-.26,1.92-.51,3.85-.79,5.9,1.17,0,2.31-.04,3.45.03.36.02.71.35,1.06.54-.38.25-.73.66-1.13.72-.82.11-1.67.06-2.51.03-.72-.02-1.06.23-1.16,1.01-.67,4.94-1.41,9.87-2.08,14.81-.07.49.17,1.03.27,1.54.54-.17,1.21-.19,1.59-.53.91-.82,1.67-1.8,2.52-2.69.31-.32.72-.55,1.22-.65-1.1,2.57-2.55,4.79-5.41,5.56-1.58.42-3.05-1.15-2.87-3.15.18-2.06.53-4.11.82-6.16.41-2.92.82-5.84,1.26-8.76.1-.69-.13-.98-.81-.97-.79.01-1.59,0-2.41,0Z"/>
      <path class="cls-2" d="m279.19,141.87h-2.71c.76-5.45,1.52-10.81,2.24-16.18.11-.83.37-1.94-.04-2.46-.35-.44-1.54-.23-2.45-.31-.08-.57-.19-1.13.67-1.14,1.2-.02,2.4,0,3.6,0,.43,0,.87,0,1.41,0-.16,1.38-.31,2.66-.49,4.18.76-1.03,1.27-1.94,1.99-2.64.75-.73,1.64-1.41,2.59-1.82,1.25-.54,2.61.11,3.12,1.25.54,1.2.03,3.2-1.08,3.71-.46.21-1.24.2-1.64-.06-.35-.23-.54-.98-.48-1.46.07-.55.48-1.06.77-1.63-.88-.66-1.75-.2-2.29.42-1.01,1.15-2.17,2.37-2.61,3.77-.83,2.64-1.23,5.42-1.72,8.16-.36,2.03-.58,4.1-.87,6.21Z"/>
      <path class="cls-2" d="m215.35,125.51c.85-1.05,1.61-2.2,2.59-3.1.6-.55,1.51-.9,2.34-1.03,1.26-.2,2.29.63,2.59,1.8.3,1.17-.35,3-1.32,3.33-.49.17-1.43.12-1.61-.17-.32-.53-.3-1.31-.26-1.98.02-.34.41-.65.65-.99-.85-.7-1.7-.3-2.17.25-1.08,1.24-2.37,2.53-2.83,4.03-.87,2.79-1.24,5.75-1.75,8.64-.33,1.84-.53,3.7-.8,5.59h-2.68c.31-2.32.61-4.6.92-6.87.51-3.63,1.02-7.27,1.54-10.9.11-.75-.06-1.16-.91-1.1-.59.04-1.18,0-1.82,0-.13-.71-.15-1.23.69-1.23,1.63,0,3.26,0,4.99,0-.14,1.25-.28,2.39-.41,3.53-.03.18-.05.36-.13.9.24-.44.31-.57.38-.69Z"/>
      <path class="cls-2" d="m346.57,136.83c-1.01,2.01-2.27,3.8-4.33,4.91-2.93,1.57-4.22-.62-4.09-2.82.16-2.62.67-5.22,1.03-7.83.33-2.33.64-4.66,1.01-6.99.11-.71-.15-.97-.81-.96-.52,0-1.05.05-1.56-.03-.23-.04-.63-.4-.6-.5.09-.29.35-.74.57-.75,1.19-.06,2.4-.1,3.59.02.88.09,1.54,1.54,1.38,2.89-.27,2.22-.6,4.43-.91,6.64-.36,2.53-.75,5.05-1.06,7.59-.06.49.2,1.02.31,1.53.5-.17,1.13-.2,1.48-.52.93-.86,1.72-1.86,2.61-2.77.31-.32.72-.53,1.09-.79.09.13.18.26.27.38Z"/>
      <path class="cls-2" d="m69.47,112.48c1.51,2.09,3.16,4.05,4.56,6.18-.13.12-.26.24-.4.36-1.56-1.18-3.11-2.37-4.7-3.58-1.87,1.2-3.71,2.37-5.82,3.73,2.28-2.41,4.3-4.53,6.36-6.71Z"/>
      <path class="cls-2" d="m224.9,137.14c1.36.01,2.36,1.07,2.36,2.48,0,1.39-1.03,2.46-2.38,2.47-1.39,0-2.47-1.13-2.44-2.56.04-1.39,1.08-2.41,2.46-2.39Z"/>
      <path class="cls-2" d="m374.4,139.57c.02-1.39,1.05-2.43,2.41-2.43,1.44,0,2.42,1.05,2.39,2.56-.02,1.39-1.08,2.41-2.45,2.38-1.36-.03-2.37-1.11-2.35-2.5Z"/>
      <path class="cls-2" d="m344.96,113.42c.02,1.3-.8,2.27-1.92,2.27-1.08,0-2.01-1.05-2-2.25.01-1.18.85-2.14,1.92-2.19,1.16-.05,1.99.84,2.01,2.16Z"/>
      <path class="cls-1" d="m181.88,57.72c0,4.32.12,8.64-.04,12.95-.11,3.14-1.06,6.07-3.67,8.15-1.7,1.36-3.72,1.98-5.83,2.3-4.16.63-8.3.71-12.21-1.15-4.88-2.32-7.57-6.47-9.19-11.42-1.76-5.39-2.11-10.95-1.77-16.57.25-4.09.87-8.1,2.56-11.87,3.24-7.21,9.14-9.97,16.4-9.64,8.98.41,13.15,6.86,13.7,14.31.32,4.29.06,8.63.06,12.95Z"/>
      <path class="cls-1" d="m366.44,57.77c0,4.23.1,8.47-.03,12.7-.1,3.01-.92,5.84-3.27,7.98-1.75,1.59-3.89,2.3-6.17,2.65-3.79.59-7.56.72-11.22-.7-5.24-2.03-8.21-6.14-10.02-11.23-2-5.62-2.36-11.46-2.01-17.36.21-3.64.72-7.22,1.99-10.66,2.64-7.16,7.81-10.85,15.02-10.74,6.87.11,12.82,4.56,14.94,11.4.56,1.8.8,3.75.87,5.64.14,3.43.04,6.87.04,10.31-.04,0-.09,0-.13,0Z"/>
      <path class="cls-1" d="m255.12,57.56c.07,5.39-.68,10.34-3,15-5.25,10.52-19.49,11.57-26.2,5.23-3.24-3.07-5.12-6.89-6.17-11.14-1.88-7.62-2.33-15.3-.17-22.95,1.53-5.43,4.53-9.86,9.98-11.95,6.33-2.43,12.49-2.16,17.85,2.51,3.34,2.9,5.06,6.82,6.19,11,1.11,4.11,1.57,8.3,1.51,12.3Z"/>
      <path class="cls-1" d="m262.48,133.82c.04-3.75,1.04-7.15,3.74-9.89.89-.91,1.89-1.63,3.28-1.2,1.35.42,1.81,1.52,1.95,2.75.52,4.56-.14,8.97-2.02,13.16-.27.6-.75,1.14-1.25,1.57-1.31,1.12-2.9.93-3.98-.44-1.38-1.75-1.8-3.78-1.71-5.96Z"/>
      <path class="cls-1" d="m251.58,130.84h-8.36c2.05-4.7,4.06-9.32,6.08-13.95l.22.04c.68,4.61,1.37,9.22,2.06,13.91Z"/>
      <path class="cls-1" d="m263.68,125.3s-.05.05-.08.08c-.02-.03-.07-.06-.07-.09,0-.03.05-.06.08-.08.02.03.05.06.07.09Z"/>
      <path class="cls-1" d="m178.01,135.65c.17-3.24.5-6.45,1.72-9.48.36-.9.91-1.79,1.57-2.5,1.18-1.29,2.93-1.32,3.95.08.84,1.15,1.6,2.56,1.79,3.94.54,4.08-.19,7.96-2.88,11.26-1.05,1.29-2.27,2.59-4.14,1.92-1.8-.65-1.89-2.39-2-4.01-.03-.4,0-.8,0-1.2Z"/>
      <path class="cls-1" d="m153.87,127.98c-.66,3.1-1.24,6.22-2.01,9.29-.23.92-.82,1.83-1.45,2.57-1.38,1.62-3.3,1.44-4.54-.29-1.75-2.46-1.75-5.24-1.39-8.04.33-2.57,1.27-4.93,2.98-6.93.36-.42.75-.83,1.19-1.17,1.97-1.52,3.93-.88,4.56,1.53.25.95.28,1.96.4,2.95.09.03.17.06.26.08Z"/>
      <path class="cls-1" d="m160.78,134.96c.58-2.6,1.12-5.61,1.96-8.54.31-1.08,1.13-2.13,1.98-2.9,1.95-1.75,4.76-.92,5.34,1.62.36,1.56.37,3.24.28,4.85-.17,2.79-.63,5.55-1.88,8.09-.77,1.56-1.84,2.82-3.75,2.93-1.5.08-2.59-.54-3.06-1.96-.38-1.16-.52-2.4-.86-4.09Z"/>
      <path class="cls-1" d="m30.38,135.35c.64-2.94,1.16-5.92,1.99-8.81.33-1.15,1.18-2.3,2.11-3.09,1.95-1.67,4.66-.8,5.26,1.68.35,1.48.48,3.11.27,4.61-.38,2.66-.92,5.33-1.74,7.89-.36,1.13-1.41,2.25-2.44,2.93-1.88,1.23-3.99.32-4.64-1.83-.32-1.05-.4-2.18-.59-3.28-.07-.03-.15-.06-.22-.1Z"/>
      <path class="cls-1" d="m290.71,135.04c.6-2.79,1.12-5.6,1.86-8.35.28-1.03.98-2,1.68-2.84.95-1.13,2.29-1.43,3.71-1.05,1.36.37,2.07,1.47,2.18,2.73.17,1.85.27,3.75,0,5.58-.33,2.26-.95,4.5-1.67,6.68-.3.92-1.04,1.82-1.81,2.45-2.07,1.67-4.67.76-5.31-1.81-.26-1.07-.29-2.2-.42-3.31l-.23-.09Z"/>
      <path class="cls-1" d="m94.67,131.13c.83-2.25,1.46-4.2,2.29-6.06.32-.72,1-1.36,1.67-1.82,1.04-.73,2.27-.9,3.38-.18,1.15.74,1.45,1.98,1.31,3.27-.32,2.87-2.4,4.58-5.78,4.79-.81.05-1.64,0-2.87,0Z"/>
      <path class="cls-1" d="m361.17,130.97c.87-2.24,1.48-4.32,2.46-6.19,1.05-1.98,3.23-2.65,4.76-1.8,1.39.77,1.95,3.08.96,4.94-.5.93-1.35,1.81-2.25,2.35-1.65.99-3.55,1-5.92.7Z"/>
      <path class="cls-1" d="m325.43,131c.72-2.05,1.21-3.9,2.02-5.61.43-.91,1.28-1.78,2.15-2.29,2.09-1.21,4.18-.02,4.38,2.38.14,1.64-.37,3.1-1.67,4.16-1.93,1.59-4.2,1.65-6.89,1.37Z"/>
      <path class="cls-1" d="m198.1,131.36c.56-2.94,1.01-5.49,2.88-7.47,1.16-1.23,2.79-1.57,4.01-.94,1.1.57,1.64,1.99,1.41,3.65-.27,1.97-1.36,3.39-3.2,3.94-1.56.47-3.24.54-5.11.82Z"/>
      <path class="cls-1" d="m62.72,131.38c.4-2.59.93-4.65,2.08-6.52.1-.17.24-.32.36-.48,1.22-1.51,3.07-2.07,4.44-1.34,1.19.64,1.77,2.55,1.28,4.28-.46,1.67-1.53,2.87-3.16,3.3-1.55.41-3.18.49-5.01.75Z"/>
      <path class="cls-1" d="m215.35,125.51c-.07.13-.14.25-.38.69.08-.53.1-.71.13-.9.08.07.17.14.25.21Z"/>
    </g>
  </g>
</svg>