<?xml version="1.0" encoding="UTF-8"?>
<!DOCTYPE svg PUBLIC "-//W3C//DTD SVG 1.1//EN" "http://www.w3.org/Graphics/SVG/1.1/DTD/svg11.dtd">
<svg xmlns="http://www.w3.org/2000/svg" version="1.1" width="3758px" height="978px" style="shape-rendering:geometricPrecision; text-rendering:geometricPrecision; image-rendering:optimizeQuality; fill-rule:evenodd; clip-rule:evenodd" xmlns:xlink="http://www.w3.org/1999/xlink">
<g><path style="opacity:0.989" fill="#000000" d="M 2667.5,-0.5 C 2697.5,-0.5 2727.5,-0.5 2757.5,-0.5C 2757.5,139.5 2757.5,279.5 2757.5,419.5C 2729.17,419.5 2700.83,419.5 2672.5,419.5C 2672.67,409.828 2672.5,400.161 2672,390.5C 2646.55,417.876 2615.05,429.043 2577.5,424C 2530.71,418.831 2496.87,395.331 2476,353.5C 2452.6,296.851 2455.93,241.851 2486,188.5C 2515.07,148.89 2554.24,131.39 2603.5,136C 2628.39,139.194 2649.55,149.694 2667,167.5C 2667.5,111.501 2667.67,55.501 2667.5,-0.5 Z M 2607.5,214.5 C 2639.15,215.577 2659.65,231.243 2669,261.5C 2675.72,289.136 2668.89,312.636 2648.5,332C 2624.02,349.573 2599.36,349.907 2574.5,333C 2553.81,312.978 2546.98,288.811 2554,260.5C 2562.28,233.704 2580.11,218.37 2607.5,214.5 Z"/></g>
<g><path style="opacity:0.978" fill="#000000" d="M 2835.5,3.5 C 2858.59,0.138328 2877.76,7.13833 2893,24.5C 2906.41,46.8508 2905.41,68.5174 2890,89.5C 2870.01,107.698 2847.18,112.198 2821.5,103C 2795.01,89.1748 2785.51,67.6748 2793,38.5C 2801.12,19.3745 2815.28,7.70784 2835.5,3.5 Z"/></g>
<g><path style="opacity:0.989" fill="#000000" d="M 1046.5,135.5 C 1084.67,130.496 1116.83,141.829 1143,169.5C 1143.5,159.839 1143.67,150.172 1143.5,140.5C 1173.5,140.5 1203.5,140.5 1233.5,140.5C 1233.5,270.833 1233.5,401.167 1233.5,531.5C 1203.5,531.5 1173.5,531.5 1143.5,531.5C 1143.67,485.165 1143.5,438.832 1143,392.5C 1125.54,411.981 1103.7,422.481 1077.5,424C 1019.22,427.12 976.716,402.953 950,351.5C 937.548,321.54 933.215,290.54 937,258.5C 940.993,218.005 958.493,184.839 989.5,159C 1006.75,146.701 1025.75,138.868 1046.5,135.5 Z M 1082.5,214.5 C 1115.5,215.329 1136.33,231.662 1145,263.5C 1147.39,279.161 1146.06,294.494 1141,309.5C 1123.85,340.892 1098.02,351.392 1063.5,341C 1046.26,333.428 1035.09,320.594 1030,302.5C 1022.21,274.075 1028.38,249.242 1048.5,228C 1058.73,220.428 1070.07,215.928 1082.5,214.5 Z"/></g>
<g><path style="opacity:0.986" fill="#000000" d="M 1682.5,135.5 C 1735.43,128.521 1779.59,144.521 1815,183.5C 1840.96,219.434 1850.46,259.434 1843.5,303.5C 1780.5,303.5 1717.5,303.5 1654.5,303.5C 1661.4,329.891 1678.4,345.391 1705.5,350C 1728.14,353.173 1748.81,348.173 1767.5,335C 1774,329.167 1780.5,323.333 1787,317.5C 1803.02,335.352 1818.85,353.352 1834.5,371.5C 1808.84,401.503 1776.17,418.669 1736.5,423C 1681.55,431.24 1635.05,415.407 1597,375.5C 1568.97,338.366 1558.97,296.7 1567,250.5C 1580.69,187.032 1619.19,148.699 1682.5,135.5 Z M 1696.5,207.5 C 1728.74,204.269 1748.74,218.269 1756.5,249.5C 1722.49,249.833 1688.49,249.5 1654.5,248.5C 1660.69,226.641 1674.69,212.975 1696.5,207.5 Z"/></g>
<g><path style="opacity:0.99" fill="#000000" d="M 2026.5,135.5 C 2056.37,131.464 2083.03,138.631 2106.5,157C 2111.71,162.542 2116.54,168.375 2121,174.5C 2146.27,147.287 2177.61,134.287 2215,135.5C 2265.89,134.781 2297.55,159.114 2310,208.5C 2311.11,214.147 2312.11,219.814 2313,225.5C 2314.42,290.154 2314.92,354.821 2314.5,419.5C 2284.83,419.5 2255.17,419.5 2225.5,419.5C 2225.67,377.165 2225.5,334.832 2225,292.5C 2224.86,278.798 2224.2,265.131 2223,251.5C 2220.51,236.378 2212.67,225.212 2199.5,218C 2178.83,212.113 2162.33,217.947 2150,235.5C 2143.22,246.185 2139.88,257.852 2140,270.5C 2139.26,320.165 2138.76,369.832 2138.5,419.5C 2108.83,419.5 2079.17,419.5 2049.5,419.5C 2049.49,375.459 2049.49,331.626 2049.5,288C 2048.88,275.535 2048.05,263.035 2047,250.5C 2040.3,221.4 2022.47,210.566 1993.5,218C 1977.79,225.725 1967.96,238.225 1964,255.5C 1962.81,268.798 1962.14,282.131 1962,295.5C 1961.5,336.832 1961.33,378.165 1961.5,419.5C 1931.83,419.5 1902.17,419.5 1872.5,419.5C 1872.5,326.5 1872.5,233.5 1872.5,140.5C 1902.17,140.5 1931.83,140.5 1961.5,140.5C 1961.33,150.506 1961.5,160.506 1962,170.5C 1979.64,151.6 2001.14,139.933 2026.5,135.5 Z"/></g>
<g><path style="opacity:0.984" fill="#000000" d="M 3008.5,135.5 C 3055.41,130.387 3097.41,142.054 3134.5,170.5C 3120.66,192.178 3106.33,213.512 3091.5,234.5C 3077.12,221.311 3060.45,212.144 3041.5,207C 3033.37,204.729 3025.37,205.062 3017.5,208C 3011.31,211.208 3009.14,216.041 3011,222.5C 3017.39,228.953 3024.89,233.787 3033.5,237C 3051.33,243.608 3068.99,250.608 3086.5,258C 3102.95,265.126 3117.11,275.293 3129,288.5C 3135.67,298.829 3139.33,310.163 3140,322.5C 3143.28,377.064 3118.11,410.231 3064.5,422C 3011.16,431.872 2962.83,420.872 2919.5,389C 2917.44,387.281 2915.78,385.281 2914.5,383C 2925.04,366.085 2936.21,349.585 2948,333.5C 2950.35,329.821 2953.35,326.821 2957,324.5C 2965.49,330.318 2973.99,336.152 2982.5,342C 2999.25,351.617 3017.25,355.617 3036.5,354C 3043.74,353.135 3049.24,349.635 3053,343.5C 3053.75,340.697 3053.42,338.03 3052,335.5C 3049.62,332.727 3046.78,330.561 3043.5,329C 3023.58,321.137 3003.58,313.47 2983.5,306C 2931.33,282.485 2913.83,243.319 2931,188.5C 2943.5,164.489 2962.67,148.323 2988.5,140C 2995.26,138.285 3001.93,136.785 3008.5,135.5 Z"/></g>
<g><path style="opacity:0.984" fill="#000000" d="M 3237.5,135.5 C 3283.07,130.058 3324.4,140.558 3361.5,167C 3362.9,168.062 3363.9,169.395 3364.5,171C 3351.29,192.577 3337.46,213.744 3323,234.5C 3305.66,218.25 3285.16,208.583 3261.5,205.5C 3253.22,204.968 3246.72,207.968 3242,214.5C 3241.33,216.833 3241.33,219.167 3242,221.5C 3243.79,224.295 3245.96,226.795 3248.5,229C 3253.62,232.044 3258.96,234.711 3264.5,237C 3282.33,243.608 3299.99,250.608 3317.5,258C 3365.51,278.256 3382.35,313.756 3368,364.5C 3355.28,395.973 3332.11,414.806 3298.5,421C 3246.25,431.52 3198.25,421.853 3154.5,392C 3150.69,389.353 3147.35,386.187 3144.5,382.5C 3158.48,362.53 3172.81,342.863 3187.5,323.5C 3200.07,334.287 3214.07,342.787 3229.5,349C 3244.59,354.472 3259.92,355.472 3275.5,352C 3286.06,346.313 3287.06,339.313 3278.5,331C 3258.28,321.89 3237.61,313.89 3216.5,307C 3161.99,283.147 3144.16,242.98 3163,186.5C 3173.37,166.805 3188.87,152.638 3209.5,144C 3218.86,140.832 3228.2,137.999 3237.5,135.5 Z"/></g>
<g><path style="opacity:0.986" fill="#000000" d="M 3502.5,135.5 C 3543.76,130.238 3580.76,140.072 3613.5,165C 3653.42,202.098 3669.09,247.765 3660.5,302C 3597.22,303.323 3533.89,303.989 3470.5,304C 3481.31,335.352 3503.47,351.185 3537,351.5C 3563.18,349.327 3585.01,338.494 3602.5,319C 3605.64,319.088 3608.14,320.588 3610,323.5C 3623,338.5 3636,353.5 3649,368.5C 3650.19,370.044 3650.52,371.711 3650,373.5C 3630.06,396.401 3605.22,411.568 3575.5,419C 3530.8,430.484 3488.13,425.484 3447.5,404C 3406.5,377.197 3384.66,339.03 3382,289.5C 3379.18,242.342 3394.35,202.175 3427.5,169C 3449.62,151.273 3474.62,140.106 3502.5,135.5 Z M 3519.5,206.5 C 3548.84,206.856 3566.84,221.19 3573.5,249.5C 3539.5,249.667 3505.5,249.5 3471.5,249C 3478.3,224.36 3494.3,210.194 3519.5,206.5 Z"/></g>
<g><path style="opacity:0.996" fill="#000000" d="M 522.5,977.5 C 506.5,977.5 490.5,977.5 474.5,977.5C 430.344,971.421 391.344,953.921 357.5,925C 237.556,807.057 119.056,687.89 2,567.5C 1.24316,565.685 0.409824,564.019 -0.5,562.5C -0.5,558.833 -0.5,555.167 -0.5,551.5C 0.409824,549.981 1.24316,548.315 2,546.5C 28.3059,519.527 54.6393,492.527 81,465.5C 176.447,370.387 272.28,275.554 368.5,181C 432.13,134.91 501.13,124.91 575.5,151C 648.483,182.436 692.317,237.27 707,315.5C 715.592,383.709 696.926,443.043 651,493.5C 629.653,514.68 608.486,536.014 587.5,557.5C 613.545,583.377 639.045,609.711 664,636.5C 710.482,699.066 721.148,767.4 696,841.5C 670.846,905.322 625.679,947.822 560.5,969C 547.916,972.814 535.25,975.647 522.5,977.5 Z"/></g>
<g><path style="opacity:0.989" fill="#000000" d="M 1268.5,140.5 C 1298.5,140.5 1328.5,140.5 1358.5,140.5C 1358.39,197.505 1358.89,254.505 1360,311.5C 1364.96,332.646 1378.29,343.646 1400,344.5C 1425.42,341.75 1440.76,327.75 1446,302.5C 1447.05,296.883 1447.72,291.216 1448,285.5C 1448.5,237.168 1448.67,188.834 1448.5,140.5C 1478.5,140.5 1508.5,140.5 1538.5,140.5C 1538.5,233.5 1538.5,326.5 1538.5,419.5C 1508.83,419.5 1479.17,419.5 1449.5,419.5C 1448.97,409.474 1448.14,399.474 1447,389.5C 1426.35,413.653 1400.01,425.32 1368,424.5C 1322.11,425.919 1291.44,405.253 1276,362.5C 1273.37,353.3 1271.37,343.967 1270,334.5C 1268.59,269.844 1268.09,205.178 1268.5,140.5 Z"/></g>
<g><path style="opacity:0.987" fill="#000000" d="M 2801.5,140.5 C 2831.17,140.5 2860.83,140.5 2890.5,140.5C 2890.5,233.5 2890.5,326.5 2890.5,419.5C 2860.83,419.5 2831.17,419.5 2801.5,419.5C 2801.5,326.5 2801.5,233.5 2801.5,140.5 Z"/></g>
<g><path style="opacity:0.981" fill="#000000" d="M 3757.5,386.5 C 3757.5,393.167 3757.5,399.833 3757.5,406.5C 3749.87,431.726 3742.21,457.059 3734.5,482.5C 3713.84,483.666 3693.17,483.833 3672.5,483C 3671.86,480.757 3671.53,478.424 3671.5,476C 3674.56,444.015 3678.73,412.182 3684,380.5C 3694.41,364.348 3709.25,357.848 3728.5,361C 3742.74,364.414 3752.41,372.914 3757.5,386.5 Z"/></g>
<g><path style="opacity:0.985" fill="#000000" d="M 3098.5,547.5 C 3116.56,547.127 3134.56,547.96 3152.5,550C 3187.29,556.45 3213.79,574.617 3232,604.5C 3242.94,628.35 3246.61,653.35 3243,679.5C 3240.95,693.987 3235.95,707.32 3228,719.5C 3222.67,726.167 3217.33,732.833 3212,739.5C 3192.64,758.528 3173.64,777.862 3155,797.5C 3153.06,801.048 3151.39,804.714 3150,808.5C 3148.77,817.163 3147.6,825.83 3146.5,834.5C 3120.17,834.5 3093.83,834.5 3067.5,834.5C 3067.33,821.163 3067.5,807.829 3068,794.5C 3070.13,779.92 3075.79,766.92 3085,755.5C 3099,740.167 3113,724.833 3127,709.5C 3137.05,699.062 3143.72,686.729 3147,672.5C 3149.83,652.293 3141.66,639.127 3122.5,633C 3111.59,631.693 3100.92,632.693 3090.5,636C 3079.52,641.809 3069.52,648.976 3060.5,657.5C 3039.05,638.887 3018.05,619.72 2997.5,600C 3014.25,580.932 3034.59,566.932 3058.5,558C 3071.64,553.217 3084.97,549.717 3098.5,547.5 Z"/></g>
<g><path style="opacity:0.99" fill="#000000" d="M 1122.5,977.5 C 1109.83,977.5 1097.17,977.5 1084.5,977.5C 1059.77,973.972 1038.93,962.972 1022,944.5C 1021.5,954.161 1021.33,963.828 1021.5,973.5C 992.833,973.5 964.167,973.5 935.5,973.5C 935.5,833.167 935.5,692.833 935.5,552.5C 965.5,552.5 995.5,552.5 1025.5,552.5C 1025.17,608.504 1025.5,664.504 1026.5,720.5C 1062.41,688.086 1103.41,679.919 1149.5,696C 1180.01,708.18 1202.51,729.013 1217,758.5C 1231.77,792.421 1236.44,827.754 1231,864.5C 1222.87,915.613 1195.03,951.113 1147.5,971C 1139.16,973.668 1130.82,975.834 1122.5,977.5 Z M 1072.5,768.5 C 1102.69,766.002 1124.19,778.335 1137,805.5C 1142.13,822.314 1142.8,839.314 1139,856.5C 1125.52,890.828 1100.68,903.994 1064.5,896C 1042,887.836 1028.5,872.003 1024,848.5C 1018.7,820.383 1026.87,797.217 1048.5,779C 1055.99,774.08 1063.99,770.58 1072.5,768.5 Z"/></g>
<g><path style="opacity:0.979" fill="#000000" d="M 2389.5,556.5 C 2419.52,555.072 2439.36,568.405 2449,596.5C 2453.63,629.749 2439.79,650.916 2407.5,660C 2383.73,664.301 2363.9,657.467 2348,639.5C 2337.75,623.563 2335.75,606.563 2342,588.5C 2352.09,569.213 2367.92,558.546 2389.5,556.5 Z"/></g>
<g><path style="opacity:0.986" fill="#000000" d="M 1416.5,977.5 C 1401.17,977.5 1385.83,977.5 1370.5,977.5C 1298.66,965.158 1257.83,922.824 1248,850.5C 1243.46,807.794 1254.13,769.46 1280,735.5C 1313.25,700.52 1354.09,685.02 1402.5,689C 1457.78,694.378 1496.28,722.545 1518,773.5C 1527.03,800.503 1529.87,828.17 1526.5,856.5C 1463.17,857.375 1399.84,857.708 1336.5,857.5C 1341.89,878.062 1354.56,892.229 1374.5,900C 1401.84,908.468 1427.17,904.468 1450.5,888C 1456.69,882.313 1463.02,876.813 1469.5,871.5C 1484.16,887.659 1498.66,903.992 1513,920.5C 1513.97,922.274 1514.8,924.107 1515.5,926C 1498.9,946.489 1477.9,960.823 1452.5,969C 1440.59,972.813 1428.59,975.647 1416.5,977.5 Z M 1379.5,760.5 C 1410.97,758.226 1430.97,772.226 1439.5,802.5C 1405.17,803.833 1370.83,803.833 1336.5,802.5C 1343.02,780.309 1357.36,766.309 1379.5,760.5 Z"/></g>
<g><path style="opacity:0.985" fill="#000000" d="M 1710.5,688.5 C 1716.83,688.5 1723.17,688.5 1729.5,688.5C 1729.5,720.833 1729.5,753.167 1729.5,785.5C 1714.74,784.919 1700.07,785.753 1685.5,788C 1662.33,795.506 1648.83,811.34 1645,835.5C 1643.73,882.591 1643.23,928.591 1643.5,973.5C 1613.5,973.5 1583.5,973.5 1553.5,973.5C 1553.5,880.167 1553.5,786.833 1553.5,693.5C 1583.5,693.5 1613.5,693.5 1643.5,693.5C 1643.62,705.828 1643.79,718.161 1644,730.5C 1661.21,708.487 1683.38,694.487 1710.5,688.5 Z"/></g>
<g><path style="opacity:0.986" fill="#000000" d="M 1894.5,977.5 C 1879.5,977.5 1864.5,977.5 1849.5,977.5C 1786.28,966.456 1746.45,929.789 1730,867.5C 1720.35,819.128 1730.35,775.461 1760,736.5C 1791.06,701.918 1829.89,686.084 1876.5,689C 1932.36,691.549 1972.2,718.049 1996,768.5C 2007.2,797.208 2010.7,826.875 2006.5,857.5C 1943.16,857.167 1879.83,857.5 1816.5,858.5C 1825.61,885.246 1844.28,900.412 1872.5,904C 1895.32,906.214 1915.65,900.214 1933.5,886C 1938.98,881.351 1944.32,876.518 1949.5,871.5C 1964.99,888.459 1980.49,905.459 1996,922.5C 1996.98,923.759 1997.32,925.092 1997,926.5C 1969.13,956.184 1934.96,973.184 1894.5,977.5 Z M 1862.5,760.5 C 1892.84,759.174 1911.84,773.174 1919.5,802.5C 1889.84,803.667 1860.17,803.833 1830.5,803C 1826.38,802.857 1822.38,802.19 1818.5,801C 1818.04,800.586 1817.71,800.086 1817.5,799.5C 1824.87,777.454 1839.87,764.454 1862.5,760.5 Z"/></g>
<g><path style="opacity:0.986" fill="#000000" d="M 2196.5,688.5 C 2265.08,684.257 2302.25,716.257 2308,784.5C 2309.3,847.493 2309.8,910.493 2309.5,973.5C 2279.5,973.5 2249.5,973.5 2219.5,973.5C 2218.88,923.329 2218.38,872.995 2218,822.5C 2219.53,779.35 2199.36,762.516 2157.5,772C 2142.47,778.035 2132.64,788.868 2128,804.5C 2125.85,813.753 2125.02,822.919 2125.5,832C 2124.68,879.271 2124.01,926.438 2123.5,973.5C 2093.5,973.5 2063.5,973.5 2033.5,973.5C 2033.5,880.167 2033.5,786.833 2033.5,693.5C 2063.5,693.5 2093.5,693.5 2123.5,693.5C 2123.46,704.504 2123.63,715.504 2124,726.5C 2143.59,704.955 2167.76,692.289 2196.5,688.5 Z"/></g>
<g><path style="opacity:0.985" fill="#000000" d="M 2640.5,977.5 C 2623.83,977.5 2607.17,977.5 2590.5,977.5C 2529.38,966.553 2490.22,931.22 2473,871.5C 2461.77,821.468 2471.77,776.468 2503,736.5C 2534.31,703.19 2572.98,687.19 2619,688.5C 2664.65,688.666 2703.31,704.999 2735,737.5C 2739.3,741.264 2739.46,745.097 2735.5,749C 2717.79,764.377 2699.79,779.377 2681.5,794C 2679.71,794.52 2678.04,794.187 2676.5,793C 2654.66,770.374 2628.66,763.707 2598.5,773C 2572.85,784.672 2560.18,804.672 2560.5,833C 2561,865.48 2576.67,886.48 2607.5,896C 2626.2,899.939 2643.87,897.272 2660.5,888C 2666.77,883.617 2672.94,879.117 2679,874.5C 2684.43,877.594 2689.6,881.094 2694.5,885C 2710.34,898.676 2726.01,912.51 2741.5,926.5C 2714.21,955.979 2680.54,972.979 2640.5,977.5 Z"/></g>
<g><path style="opacity:0.986" fill="#000000" d="M 2915.5,977.5 C 2900.83,977.5 2886.17,977.5 2871.5,977.5C 2805.03,967.161 2764.2,929.161 2749,863.5C 2741.03,818.068 2750.36,776.734 2777,739.5C 2799.47,712.839 2827.97,696.339 2862.5,690C 2909.52,682.462 2950.85,694.129 2986.5,725C 3019.83,761.772 3033,804.939 3026,854.5C 3025.5,855 3025,855.5 3024.5,856C 2961.85,857.442 2899.18,857.942 2836.5,857.5C 2841.89,878.062 2854.56,892.229 2874.5,900C 2901.84,908.468 2927.17,904.468 2950.5,888C 2956.69,882.313 2963.02,876.813 2969.5,871.5C 2984.49,887.992 2999.32,904.659 3014,921.5C 3015.19,923.044 3015.52,924.711 3015,926.5C 2997.56,947.323 2975.73,961.823 2949.5,970C 2938.16,973.098 2926.83,975.598 2915.5,977.5 Z M 2879.5,760.5 C 2911.32,758.227 2931.32,772.393 2939.5,803C 2905.16,803.833 2870.83,803.667 2836.5,802.5C 2842.33,779.669 2856.66,765.669 2879.5,760.5 Z"/></g>
<g><path style="opacity:0.984" fill="#000000" d="M 2349.5,693.5 C 2379.17,693.5 2408.83,693.5 2438.5,693.5C 2438.5,786.833 2438.5,880.167 2438.5,973.5C 2408.83,973.5 2379.17,973.5 2349.5,973.5C 2349.5,880.167 2349.5,786.833 2349.5,693.5 Z"/></g>
<g><path style="opacity:0.98" fill="#000000" d="M 3120.5,977.5 C 3111.83,977.5 3103.17,977.5 3094.5,977.5C 3058.38,963.578 3046.88,938.245 3060,901.5C 3075.91,876.969 3098.08,868.802 3126.5,877C 3157.12,892.095 3166.96,915.928 3156,948.5C 3147.87,962.801 3136.04,972.468 3120.5,977.5 Z"/></g>
</svg>
