<?xml version="1.0" encoding="UTF-8"?>
<!DOCTYPE svg PUBLIC "-//W3C//DTD SVG 1.1//EN" "http://www.w3.org/Graphics/SVG/1.1/DTD/svg11.dtd">
<!-- Creator: CorelDRAW -->
<svg xmlns="http://www.w3.org/2000/svg" xml:space="preserve" width="432.638mm" height="148.187mm" version="1.1" style="shape-rendering:geometricPrecision; text-rendering:geometricPrecision; image-rendering:optimizeQuality; fill-rule:evenodd; clip-rule:evenodd"
viewBox="0 0 25609.16 8771.63"
 xmlns:xlink="http://www.w3.org/1999/xlink"
 xmlns:xodm="http://www.corel.com/coreldraw/odm/2003">
 <defs>
  <style type="text/css">
   <![CDATA[
    .fil1 {fill:#202020}
    .fil0 {fill:#212121}
   ]]>
  </style>
 </defs>
 <g id="Camada_x0020_1">
  <metadata id="CorelCorpID_0Corel-Layer"/>
  <g id="_2767515505216">
   <path class="fil0" d="M6125.41 4197.55l0 2057.76c0,510.13 150.51,1031.83 447.25,1439.59l100.55 131.89c99.43,125.69 273.98,302.12 394.73,398.29l87.75 69.49c17.73,13.27 30.31,20.88 47.95,34.09 339.6,254.38 862.77,436.66 1294.01,435.6l156.19 5.88c48.88,-5.74 94,-4.9 151.72,-5.61 93.83,-1.15 326.63,-39.38 412.64,-59.07 286.77,-65.64 438.14,-145.3 671.75,-271.67 80.02,-43.28 300.86,-204.2 362.98,-265.97 17.59,-17.5 22.51,-19.34 40.68,-34.52 15.4,-12.87 26.94,-26.32 41.32,-40.71l119.59 -119.69c451.75,-513 675.14,-1022.9 675.14,-1779.12l0 -2406.41c0,-36.84 -36.82,-82.04 -75.2,-82.04l-437.53 0c-200.74,0 -362.88,125.22 -446.76,298.4 -46.99,97.02 -45.46,190.61 -45.46,330.55l0.05 1880.05c1.91,370.05 -169.11,822.3 -422.19,1074.98 -189.57,189.26 -294.86,271.94 -560.24,376.35 -46.11,18.14 -99.89,32.73 -146.96,44.45 -333.4,83.03 -661.33,45.79 -975.38,-81.56 -40.77,-16.53 -73.38,-36.88 -112.61,-58.31 -417.1,-227.77 -696.28,-663.67 -761.32,-1159.71 -28.61,-218.23 -15.69,-1092.86 -15.69,-1378.94l0.33 -1224.05c-0.15,-35.17 -1.54,-49.46 -18.76,-70.11 -13.46,-16.15 -30.24,-32.1 -56.77,-32.1l-444.37 0c-255.52,0 -485.38,236.3 -485.38,492.22z"/>
   <path class="fil1" d="M-0 3766.86c0,54.58 239.99,582.52 266.43,642.81l341.06 786.94c142,346.48 329.3,764.63 479.3,1106.74l1022.71 2361.3c26.94,64.73 36.41,106.45 125.99,106.45l943.42 0c95.21,0 92.97,-40.52 123.06,-102.55 80.96,-166.93 189.13,-441.91 273.34,-629.06 23.04,-51.21 46.82,-107.68 67.49,-158.1l136.74 -314.46c22.22,-53.84 47.61,-106.53 68.39,-157.22l204.14 -472.66c23.64,-55.15 44.82,-102.13 68.37,-157.23 244.92,-573.24 511.32,-1161.67 749.99,-1731.62 23.41,-55.91 45.16,-101.54 68.37,-157.23l340.78 -787.23c26.52,-61.9 134.83,-287.47 134.83,-336.88 0,-50.82 -50.62,-68.36 -102.55,-68.36l-587.93 0c-227.09,0 -376.61,97.28 -467.74,236.41 -31.03,47.37 -88.77,185.53 -112.37,243.12 -17.54,42.79 -34.9,79.9 -53.78,123.97 -67.13,156.64 -199.91,478.83 -268.51,620.22 -63.09,130.02 -148.93,357.11 -214.23,496.76l-214.5 496.48c-101.61,235.26 -224.71,506.1 -322.29,744.19 -81.74,199.43 -187.04,421.12 -268.59,620.14 -31.53,76.97 -30.47,96.7 -101.56,96.7 -47,0 -56.42,-47.74 -78.08,-99.66l-108.39 -247.1c-141.22,-329.55 -296.08,-669.82 -432.7,-996.1l-378.75 -872.32c-17.89,-40.79 -38,-84.93 -53.93,-123.81 -17.07,-41.64 -33.64,-83.36 -53.36,-124.39l-217.14 -500.68c-36.37,-86.87 -183.39,-433.02 -222.6,-488.38 -120.35,-169.9 -274.52,-225.53 -492.29,-225.53l-560.58 0c-51.92,0 -102.55,17.54 -102.55,68.36z"/>
   <path class="fil0" d="M14390.63 1688.59l6.83 2016.74c-145.46,0 -293.16,-14.69 -421.74,49.96 -203.07,102.09 -289.24,284.53 -289.24,510.62 0,81.7 -13.07,369.47 18.5,419.03 9.83,15.43 13.58,17.59 28.77,25.93 11.49,6.3 23.56,13.09 41.61,13.09l622.11 0 0 1996.23c0,144.86 33.03,322.76 66.98,459.42 59.25,238.49 154.34,439.24 288.48,641.27 63.31,95.34 111.78,145.15 176.76,226.59 73.19,91.73 320.71,307.81 422.64,370.38 242.49,148.86 458.72,259.38 756.09,310.38 299.65,51.39 490.53,42.87 791.17,42.87 54.29,0 109.38,-23.16 109.38,-75.2l0 -868.23c0,-101.47 -178.22,-75.2 -273.45,-75.2 -111.92,0 -241.66,7.81 -342.24,-6.42 -284.42,-40.23 -460.63,-145.59 -647.48,-316.45l-154.19 -194.47c-95.48,-161.3 -182.36,-373.99 -182.36,-610.66l0 -1900.52 1121.17 0c29.48,0 53.6,-11.14 69.84,-25.87 16.17,-14.65 25.87,-40.68 25.87,-69.84l0 -827.2c0,-51.27 -33.33,-95.71 -82.04,-95.71l-1134.84 0 0 -2433.76c0,-51.27 -33.33,-95.71 -82.04,-95.71l-430.69 0c-282.02,0 -505.89,229.6 -505.89,512.73z"/>
   <path class="fil1" d="M20023.82 8497.65c-315.58,0 -359.89,1.39 -683.65,-34.18 -295.56,-32.46 -636.37,-123.65 -915.05,-226.63l-165.1 -67.34c5.01,-21.52 12.85,-32.13 21.55,-53.65l117.46 -265.38c9.42,-18.84 16.28,-33.51 24.97,-50.22 57.08,-109.66 113.67,-191.95 173.84,-291.04l99.71 -139.57c90.32,-120.71 300.46,-360.38 398.52,-442.35l127.82 -111.46c29.38,-22.77 58.18,-45.38 88.03,-69.2 116.49,-92.94 235.97,-168.44 367.9,-247.38 170.01,-101.72 464.06,-230.39 647.74,-282.01 42.99,-12.08 73.23,-22.11 116.15,-34.26 110.5,-31.27 269.96,-59.52 385.76,-79.11l288.16 -26.32c20.52,38.79 40.51,74.52 64.41,113.34 63.55,103.23 213.66,340.2 281.31,429.68 27.63,36.55 46.67,66.88 74.22,103.52 27.35,36.39 48.69,65.26 76.12,101.63l500.34 579.81 224.43 219.94c19.51,14.98 37.3,27.1 43.9,51.81 -24.78,6.61 -36.31,25.64 -55.59,40.12l-427.41 269.9c-156.06,79.2 -230.47,119.52 -402.84,191.92l-287.41 109.1c-133.68,44.16 -332.9,98.27 -469.16,125.61 -152.4,30.58 -195.95,34.17 -341.34,55.17l-374.8 28.55zm1408.3 -2420.09c329.98,0 749.71,101.73 1044.99,219.74 140.36,56.1 194.66,80.67 324.6,147.12l483.07 309.95c-18.9,35.72 -50.88,70.04 -75.2,102.55 -46.05,61.54 -192.22,244.17 -240.92,292.31 -59.23,58.57 -130.55,144.64 -176.09,179.4 -65.34,49.87 -116.85,120.97 -191.42,170.91 -65.75,-44.03 -155.7,-153.85 -204.08,-192.44 -57.94,-46.22 -181.97,-190.05 -238.68,-246.7 -17.86,-17.85 -21.08,-27.06 -37.42,-44.62l-259.1 -308.32c-122.67,-153.4 -335.15,-449.87 -429.75,-629.9zm2796.09 -786.18l-3.76 14.7 3.76 -14.7zm-3719 -2529.47c0,-94.7 11.84,-445.21 23.4,-523.51 8.37,-56.71 5.99,-113.3 14.51,-170.08l43.42 -318.91c20.85,-103.43 35.28,-206.61 58.26,-310.91 36.54,-165.84 98.17,-414.85 151.81,-579.69 8.31,-25.53 11.54,-43.91 21,-67.87 10.19,-25.81 15.95,-42.83 25.17,-70.54l147.82 -405.93c31.91,0.71 88.84,21.55 118.81,31.6 251.98,84.52 306.95,103.01 557.91,214.6 125.48,55.8 286.07,150.5 402.07,220.04 17.48,10.48 30.95,16.31 47.95,27.25 16.62,10.7 27.75,18.66 45.03,30.17 141.8,94.53 226.22,158.74 358.7,263.41l361.59 328.89c16.19,17.5 19.78,26.87 37.39,44.66 162.45,164.19 360.7,413.11 478.26,608.73 216.98,361.04 316.16,547.52 449.04,945.58 68.02,203.75 117.07,408.8 152.24,620.28 21.62,130 43.12,287.88 46.69,425.02l7.04 143.36c0,25.13 -0.07,50.24 -0.16,75.36 -0.11,31.72 6.22,55.11 5.64,74.4 -11.1,372.67 -49.64,723.72 -153.5,1083.17 -25.01,86.55 -47.4,156.68 -75,239.48 -64.75,194.19 -102.6,266.27 -178.35,443.76 -45.4,106.38 -106.77,202.68 -161.56,303.32 -18.17,33.38 -39.46,68.6 -59.18,98.05 -26.27,-13.9 -27.84,-19.03 -51.69,-37.19l-386.13 -249.65 -496.77 -227.89c-23.65,-9.36 -41.3,-14.01 -66.17,-22.7 -379.85,-132.72 -747.55,-194.06 -1166.38,-194.06l-154.96 -316.76c-13.73,-28.59 -23.4,-53.26 -36.54,-79.67 -132.06,-265.53 -263.49,-683.67 -344.7,-967.89 -35.3,-123.54 -64.22,-255.25 -91.09,-380.62 -35.5,-165.67 -102.61,-608.11 -111.06,-777.67l-13.66 -287.15c0.1,-81.06 -6.84,-145.93 -6.84,-232.43zm3719 2529.47l43.9 -250.06c16.58,-87.34 22.48,-174.99 35.34,-265.46 5.66,-39.8 9.2,-102.12 9.52,-140.88l6.95 -143.45c-0.09,-103.11 12.36,-186.91 0.99,-288.13 -2.75,-24.55 -0.45,-49.76 -0.73,-74.47l-15.17 -210.44c-23.26,-209.22 -40.84,-316.11 -81.38,-520.22 -25.34,-127.58 -54.52,-231.62 -90.76,-353.61 -43.82,-147.54 -54.33,-94.11 28.23,-195.44 104.39,-128.14 413.33,-462.95 509.48,-543.33 17.86,-14.94 23.45,-16.93 40.81,-34.39l116.43 -109.18c67.93,-56.8 280.46,-240.86 332.96,-268.64 0,80.71 -38.88,412.61 -47.85,492.23 -9.02,80.01 -20.13,161.38 -32.17,234.45 -13.07,79.34 -22.02,158.04 -37.87,235.59 -108.49,530.99 -167.86,790.78 -334.17,1292.88 -21.78,65.76 -46.39,127.16 -70,196.63 -43.19,127.1 -103.39,262.3 -152.79,387.28l-236.62 515.38c-4.48,9.13 -7.33,15.76 -11.31,22.87 -0.74,1.33 -1.69,3.1 -2.46,4.38l-11.34 16.01zm-3985.62 -2577.32l6.61 348.88c-0.06,69.06 13.71,149.22 13.9,218.54 0.23,83.66 31.43,328.59 44.9,419.98 25.09,170.18 46.4,330.98 87.66,493.43l68.43 280.22c52.63,211.01 144.06,497.1 224.78,698.13 65.77,163.8 130.98,329.74 210.01,487.31 17.47,34.82 67.35,123.53 75.2,157.23 -115.67,2.57 -488.47,82.81 -583.83,106.64 -136.01,33.99 -384,113.17 -512.32,178.15 -78.55,39.78 -156.28,69.3 -229.8,112.02 -35.11,20.4 -72.9,42.2 -109.73,61.19 -36.92,19.04 -74.09,44.18 -110.69,67.07 -18.17,11.36 -30.68,20.42 -49.21,32.82 -20.85,13.96 -34.5,20.16 -54.87,34.01 -37.13,25.26 -66.21,49.06 -102.56,75.19l-195.37 153.29c-95.31,74.09 -179.52,162.44 -264.91,247.82 -87.97,87.96 -164.29,186.77 -243.11,283.3 -215.89,264.41 -371.96,571.37 -499.88,887.91l-68.3 191.48c-8.32,21.5 -15.98,46.73 -24.46,64.41 216.24,114.42 666.32,279.27 902.95,327.6 174.47,35.63 340.08,74.91 519.6,95.67 237.96,27.52 519.09,40.97 771.96,27.96 290.95,-14.98 596.73,-58.64 876.44,-135.35 53.97,-14.8 106.91,-26.13 156.73,-41.53 136.84,-42.3 320.23,-98.69 448.03,-160.41 45.79,-22.11 91.48,-41.17 138.06,-60.19 82.46,-33.67 190.56,-89.29 269.75,-133.59 173.31,-96.93 335.21,-202.72 496.82,-316.71 58.78,-41.46 119.75,-78.89 172.68,-128.12l164.37 -143.27c77.77,-65.02 137.26,-124.2 208.2,-195.15 18.62,-18.61 33.17,-32.18 51.42,-51.13l191.21 -212.14c11.42,-12.85 10.21,-14.28 20.91,-26.94 116.15,-137.32 225.36,-281.13 333.9,-424.94 191.16,-253.3 365.59,-517.87 529.32,-790.11 27.5,-45.71 46.98,-84.89 74.23,-130.86 101.62,-171.32 190.38,-348.61 279.66,-527.04 23.27,-46.5 40.64,-87.94 63.89,-134.37l240.67 -566.02c145.18,-400.61 229.56,-627.23 342.62,-1079.36 67.08,-268.26 123.41,-561.26 170.95,-840.84l46.68 -356.67c19.45,-189.43 39.67,-366.29 41.89,-566.55l12.94 -192.15c3.64,-32.42 -1.33,-68.68 1.36,-101.19 2.71,-32.64 6.48,-53.42 6.48,-96.07 -111.17,58.83 -526.07,373.19 -637.31,470.19 -47.45,41.36 -99.99,78.3 -143.79,122.83 -18.7,19.01 -24.49,21.56 -44.09,37.95l-516.49 515.8c-19.41,19.1 -23.61,29.45 -40.92,47.95 -27.96,29.88 -52.85,67.52 -87.22,90.53 -24.41,-104.75 -177.18,-378.48 -232.4,-485.42 -73.4,-142.15 -185.35,-309.32 -284.23,-440.43 -49.43,-65.54 -102.21,-145.01 -158.46,-203.87 -73.77,-77.21 -138.05,-162.79 -211.79,-239.41 -16.02,-16.65 -28.23,-27.95 -44.58,-44.3 -30.72,-30.72 -60.5,-64.19 -92.34,-92.23l-191.4 -170.93c-19.06,-18.96 -29.32,-23.88 -47.8,-41.07 -18.66,-17.34 -28.48,-24.84 -47.99,-40.88 -34.74,-28.54 -69.28,-52.58 -105.12,-79.46 -139.93,-104.98 -282.38,-201.62 -432.67,-291.99 -112.12,-67.43 -232.46,-137.57 -353.49,-186.59 -24.64,-9.97 -39.07,-18.58 -60.66,-28.21 -194.5,-86.77 -391.02,-169.68 -598.75,-221.62 -62.26,-15.57 -231.84,-72.43 -289.89,-72.43l-174.8 440.47c-21.48,53.13 -39.28,102.66 -56.77,155.16 -34.69,104.13 -66.62,202.38 -99.04,311.15 -101.39,340.21 -170.57,666.46 -210.69,1033.54 -6.24,57.09 -13.08,120.43 -21.32,183.77 -7.1,54.54 -6.53,129.46 -15.6,189.49l-9.57 195.53c0.23,43.78 -6.78,55.74 -7.27,95.28 -0.44,36.28 0.28,73.28 0.28,109.66z"/>
   <path class="fil1" d="M11922.69 1777.46l0 6863.75c0,62.79 21.35,129.89 88.87,129.89l834.04 0c57.26,0 95.71,-30.9 95.71,-88.87l0 -7431.16c0,-39.95 -35.26,-75.2 -75.2,-75.2l-451.2 0c-84.32,0 -159.44,26.05 -216.53,56.92 -53.21,28.78 -76.44,49.57 -119.61,85.49 -43.84,36.47 -107.84,140.65 -129.68,212.14 -21.21,69.41 -26.39,154.74 -26.39,247.05z"/>
   <path class="fil0" d="M22881.44 8231.02c120.27,57.71 269.02,11.69 373.12,-50.73l213.53 -121.46c103.59,-62.37 238.18,-163.17 337.24,-243.85l520.25 -484.7c16.95,-19.25 21.49,-28.57 41.01,-47.86 72.12,-71.3 148.94,-169.12 198.28,-218.74 56.89,-57.2 204.65,-246.24 263.38,-317.72 13.77,-16.76 23.43,-30.34 35.68,-46.36l523.78 -734.12c23.42,-34.99 42.09,-66.66 64.22,-99.85 97.11,-145.65 157.23,-214.43 157.23,-389.68 0,-189.98 -176.35,-396.51 -334.98,-396.51 -119.44,0 -185.27,108.52 -232.79,191.06 -11.04,19.18 -20.65,33.45 -31.6,57.28l-246.1 533.25c-11,23.72 -15.45,38.33 -27.28,61.6 -98.98,194.78 -158.44,358.94 -286.54,574.85 -173.61,292.64 -212.6,348.7 -431.55,607.58 -17.23,20.37 -23.2,28 -41.41,47.47 -17.12,18.29 -21.97,28.74 -41,47.87 -17.79,17.89 -21.2,26.83 -37.58,44.46 -99.35,106.86 -186.94,221.32 -290.54,324.74 -85.53,85.4 -156.07,166.82 -252.81,259.92l-473.56 401.5z"/>
  </g>
 </g>
</svg>
